<?xml version="1.0" encoding="utf-8"?>
<!-- Generator: Adobe Illustrator 19.1.0, SVG Export Plug-In . SVG Version: 6.00 Build 0)  -->
<svg version="1.1" baseProfile="tiny" id="Lager_1" xmlns="http://www.w3.org/2000/svg" xmlns:xlink="http://www.w3.org/1999/xlink"
	 x="0px" y="0px" viewBox="-168 49.8 162 153.2" xml:space="preserve">
<g id="Lager_2">
	<g>
		<path fill="none" stroke="#2B2422" stroke-width="3" stroke-miterlimit="10" d="M-59.8,179c2.1,2,2.4,4.5,2.6,7.1
			c0,0.5,0.2,3.3,0.2,2.5"/>
		<path fill="none" stroke="#2B2422" stroke-width="3" stroke-miterlimit="10" d="M-106.6,180c0-0.2,0.5-0.6,0-0.3
			c-1,1.9-3.2,7.3-2.3,8.7"/>
		<path fill="#FAB900" stroke="#2B2422" stroke-width="3" stroke-miterlimit="10" d="M-111.4,157.3c-1.4-5.2-18.9-81.7-12.4-87.8
			c11.2-10.3,69.4-14.2,73.8-4.6s-2.6,78-6,90.8C-59.3,168.5-111.4,157.3-111.4,157.3z"/>
		<path fill="#E4007F" stroke="#2B2422" stroke-width="3" stroke-miterlimit="10" d="M-131.5,175.6c14.6,11.9,93.5,8.6,94.9-0.4
			s-12.5-23.3-17.9-26c-5.4-2.7-53.5-1.2-56.5-0.7C-114.1,148.9-133.9,173.7-131.5,175.6z"/>
		<path fill="#FFFFFF" stroke="#2B2422" stroke-width="3" stroke-miterlimit="10" d="M-116.9,61.6c7,5.6,2.5,22.3-7.1,17.1
			c-4.4-2.4-6.1-10.1-3.9-14.5c1-2,3.3-3.7,5.9-3.8C-122,60.3-119.3,59.8-116.9,61.6z"/>
		<path fill="#FFFFFF" stroke="#2B2422" stroke-width="3" stroke-miterlimit="10" d="M-52.8,59.8c-3.5,1.5-6.7,6.5-6.6,9.6
			c0,4.1,2.4,8,7.1,7.9c5.9-0.1,9.6-5.6,8-10.9c-0.6-2-1.9-4.9-3.4-5.9C-47.8,60.5-50.7,58.9-52.8,59.8z"/>
		
			<ellipse transform="matrix(-0.191 0.9816 -0.9816 -0.191 -72.6474 206.5908)" fill="#2B2422" cx="-121.5" cy="73.4" rx="6.1" ry="5.7"/>
		<ellipse fill="#2B2422" cx="-52.1" cy="71.8" rx="5.5" ry="5.1"/>
		<path fill="none" stroke="#2B2422" stroke-width="2" stroke-linecap="round" stroke-miterlimit="10" d="M-89.5,95
			c-1.7,10.2,13.3,8.7,14.6,2.4c0.4-0.2-0.2,0.1-0.3,0.2"/>
		<path fill="#2B2422" d="M-93.5,60.3c0,0-0.1,0.3-0.4,0.9c-0.2,0.6-0.6,1.5-1,2.6s-0.9,2.5-1.3,4.1c-0.3,0.8-0.5,1.7-0.7,2.6
			c-0.2,0.9-0.5,1.9-0.7,2.9s-0.5,2-0.7,3.1c-0.2,1.1-0.4,2.2-0.6,3.4c-0.4,2.3-0.7,4.8-0.9,7.4c-0.5,5.1-0.6,10.6-0.5,16.1
			c0,2.7,0.1,5.5,0.2,8.2c0.1,2.7,0.2,5.4,0.3,7.9c0.2,2.6,0.3,5,0.6,7.4c0.2,2.4,0.6,4.5,1,6.6c0.7,4.1,1.3,7.5,1.7,9.8
			c0.2,1.2,0.3,2.1,0.4,2.8c0.1,0.3,0.1,0.6,0.2,0.7c0,0.1,0.1,0.1,0.1,0.1h0.1c0,0,0,0-0.1,0l-0.1-0.1c-0.1-0.2-0.1-0.4-0.2-0.7
			c-0.2-0.6-0.3-1.6-0.6-2.7c-0.5-2.4-1.2-5.7-2.1-9.8c-0.4-2-0.8-4.2-1.1-6.6c-0.3-2.4-0.6-4.8-0.7-7.4c-0.2-2.6-0.3-5.2-0.4-8
			c-0.1-2.7-0.2-5.5-0.3-8.2c-0.1-5.5,0.1-11,0.6-16.2c0.3-2.6,0.6-5.1,1-7.4c0.2-1.2,0.4-2.3,0.7-3.4c0.2-1.1,0.5-2.1,0.8-3.1
			s0.5-2,0.8-2.9c0.3-0.9,0.5-1.8,0.8-2.5c0.5-1.6,1.1-3,1.5-4.1c0.4-1.1,0.9-2,1.1-2.6C-93.7,60.7-93.5,60.3-93.5,60.3z"/>
		<path fill="#2B2422" d="M-104.6,181.1c0,0,0-0.5-0.1-1.5c0-0.9-0.1-2.3,0-3.9c0-0.8,0.1-1.7,0.2-2.6c0.1-0.9,0.2-1.9,0.4-2.9
			c0.4-2,0.9-4.1,1.5-6.2c0.6-2.1,1.3-4.1,2-6c0.7-1.9,1.4-3.7,2.1-5.1c0.7-1.5,1.5-2.6,2.1-3.3c0.3-0.4,0.6-0.6,0.8-0.7
			c0.2-0.1,0.3-0.2,0.3-0.2s-0.1,0.1-0.3,0.3c-0.2,0.2-0.4,0.4-0.7,0.8c-0.6,0.7-1.2,1.9-1.8,3.4c-0.6,1.5-1.2,3.3-1.8,5.2
			c-0.6,1.9-1.3,3.9-1.9,6c-0.6,2-1.1,4.1-1.6,6.1c-0.4,1.9-0.8,3.8-1,5.4c-0.2,1.6-0.3,2.9-0.4,3.9
			C-104.6,180.5-104.6,181.1-104.6,181.1z"/>
		<ellipse fill="#2B2422" cx="-100.9" cy="68.4" rx="1.6" ry="1.4"/>
		<ellipse fill="#2B2422" cx="-95.1" cy="154.9" rx="1.6" ry="1.4"/>
		<ellipse fill="#2B2422" cx="-108" cy="176" rx="1.6" ry="1.4"/>
		<path fill="none" stroke="#2B2422" stroke-width="3" stroke-miterlimit="10" d="M-119.7,114.2c-3.3,1.8-7.1,2.8-10.6,4.3
			c-3.9,1.6-6.6,1.8-3.2,5.4c3.3,3.5,7,6.6,10.3,10.2c1.6,1.8,3.5,4.2,5.7,5.1c-1.2,1.6-3.8,2.1-5.1,3.8"/>
		<path fill="none" stroke="#2B2422" stroke-width="3" stroke-miterlimit="10" d="M-50.1,110.1c3.3,2.6,13.1,2,14.5,0.5
			c2.2-2.2,6.3-8.2,8.7-13.7"/>
		<path fill="#17AADC" stroke="#2B2422" stroke-width="2" stroke-miterlimit="10" d="M-116.7,140.8c2.1,4.8-1.7,9.4-6,12.4
			c-0.2,0.1-0.9,0.4-0.8-0.4c2.8-5.4-1.9-12.1-7.3-13.9c-0.2-0.1-0.7-0.7,0.2-1.1C-130.6,137.8-119.6,134.1-116.7,140.8z"/>
		<path fill="#17AADC" stroke="#2B2422" stroke-width="2" stroke-miterlimit="10" d="M-26.2,96.5c-5.3-1.9-6.2-7.7-5.5-12.8
			c0-0.2,0.3-0.9,0.9-0.2c2.3,5.6,10.9,7.1,16.2,4.7c0.2-0.1,1,0,0.7,0.9C-13.9,89.1-18.8,99.2-26.2,96.5z"/>
		<path fill="#40A435" stroke="#2B2422" stroke-width="3" stroke-miterlimit="10" d="M-65,197.8c6.1,0,11.6,0.2,17.7-0.2
			c1.2-0.3-3.8-8.9-8.4-9.2c-6.1-0.5-8.5,3.8-10,8.6C-65.7,197-65.6,197.9-65,197.8z"/>
		<path fill="#40A435" stroke="#2B2422" stroke-width="3" stroke-miterlimit="10" d="M-101.3,197.8c-6.1,0-11.6,0.2-17.7-0.2
			c-1.2-0.3,3.8-8.9,8.4-9.2c6.1-0.5,8.5,3.8,10,8.6C-100.6,197-100.7,197.9-101.3,197.8z"/>
	</g>
</g>
</svg>
