<?xml version="1.0" encoding="utf-8"?>
<!-- Generator: Adobe Illustrator 19.1.0, SVG Export Plug-In . SVG Version: 6.00 Build 0)  -->
<svg version="1.1" baseProfile="tiny" id="Lager_1" xmlns="http://www.w3.org/2000/svg" xmlns:xlink="http://www.w3.org/1999/xlink"
	 x="0px" y="0px" viewBox="-198 50.3 101.3 151.7" xml:space="preserve">
<g id="Lager_2">
	<g>
		<path fill="#FFFFFF" stroke="#25211E" stroke-width="3" stroke-miterlimit="10" d="M-159.3,176.4c-1.8,5-2.8,10.4-2,14.8"/>
		<path fill="#BC564A" stroke="#25211E" stroke-width="3" stroke-miterlimit="10" d="M-134.8,175.6c4.1,2.2,3.9,11.9,3.9,16.2"/>
		<path fill="#1AABDD" stroke="#2B2523" stroke-width="2" stroke-miterlimit="10" d="M-177.2,177.4c4.6,0.2,6.7,4.6,7.4,8.7
			c0,0.2-0.1,0.8-0.6,0.4c-3.1-3.9-10.2-3-13.8,0.2c-0.1,0.1-0.8,0.2-0.8-0.6C-185,186.1-183.6,177-177.2,177.4z"/>
		<path fill="#1AABDD" stroke="#2B2523" stroke-width="2" stroke-miterlimit="10" d="M-111.6,170.3c1.3-4.4,6-5.5,10.1-5.2
			c0.2,0,0.7,0.2,0.2,0.7c-4.5,2.2-5.2,9.3-2.9,13.5c0.1,0.1,0,0.8-0.7,0.6C-104.9,179.9-113.4,176.4-111.6,170.3z"/>
		<path fill="#FBBA00" stroke="#2B2523" stroke-width="3" stroke-miterlimit="10" d="M-170.1,91.5c5.7-9.7,27.1-20.3,37.7-14.8
			c14,7.3,11.2,98.6,7.3,100.2c-5.9,2.4-36.6,5.1-40.7,0C-169.8,171.8-174.7,99.3-170.1,91.5z"/>
		<path fill="#FFFFFF" stroke="#25211E" stroke-width="3" stroke-miterlimit="10" d="M-120.4,101.7c0,10.6-8.2,14.6-10.6,14.6
			c-2.3,0-10.6-1.9-10.6-14.6c0-8.1,4.7-14.6,10.6-14.6C-122.8,87.1-120.4,93.6-120.4,101.7z"/>
		<path fill="#25211E" d="M-119.8,98c0,5.5-3.5,9.9-7.9,9.9s-7.9-2-7.9-9.9c0-5.5,4.7-11,7.9-9.9C-123.6,89.5-119.8,92.6-119.8,98z"
			/>
		<path fill="none" stroke="#2B2523" stroke-width="2" stroke-linecap="round" stroke-miterlimit="10" d="M-144,142.4
			c0.7,3.3,6.2,4.7,9.4,4.3"/>
		<path fill="#2B2523" d="M-154.5,80.2l-1.8,2.7c-0.5,0.9-1.1,1.8-1.6,2.8c-1,1.9-2,3.8-2.9,5.8c-0.8,2-1.5,4-1.8,6.1
			c-0.2,1-0.2,2.1-0.1,3.1c0,0.3,0.1,0.5,0.1,0.8c0.1,0.3,0,0.6,0.1,0.9l0.1,1.6c0.2,4.3,0.4,8.6,0.6,12.9l0.7,12.9
			c0.2,4.3,0.5,8.6,0.8,12.9s0.7,8.6,1.3,12.8c0.6,4.2,1.4,8.5,2.8,12.5c0.3,1,0.7,2,1.1,3s0.9,2,1.3,2.9c0.9,1.9,1.9,3.9,2.5,6
			h-0.1c0-0.2,0-0.4-0.2-0.5c-0.1-0.1-0.3-0.3-0.4-0.5c0.1,0.2,0.2,0.3,0.4,0.4c0.1,0.1,0.2,0.4,0.2,0.6v0.2v-0.2
			c-0.7-2-1.7-3.9-2.7-5.8c-0.5-1-1-1.9-1.4-2.9c-0.4-1-0.8-2-1.2-3c-1.4-4.1-2.4-8.3-3-12.6c-0.4-2.1-0.6-4.3-0.8-6.4
			c-0.2-2.1-0.4-4.3-0.6-6.4c-0.3-4.3-0.6-8.6-0.9-12.9c-0.3-4.3-0.5-8.6-0.7-12.9c-0.2-4.3-0.4-8.6-0.5-12.9v-1.6
			c0-0.3,0-0.6,0-0.8c0-0.3-0.1-0.6-0.1-0.8c-0.1-1.1,0.1-2.2,0.2-3.3c0.4-2.2,1.2-4.2,2.1-6.2c0.9-2,2-3.9,3.1-5.7
			c0.6-0.9,1.2-1.8,1.8-2.7L-154.5,80.2z"/>
		<ellipse fill="#2B2523" cx="-160.9" cy="166.4" rx="1.6" ry="1.4"/>
		<ellipse fill="#2B2523" cx="-159.3" cy="99.4" rx="1.6" ry="1.4"/>
		<path fill="#41A535" stroke="#2B2523" stroke-width="3" stroke-miterlimit="10" d="M-168.9,196.7c1.3-4.1,2.3-7.6,7.5-7.1
			c4,0.3,6.8,3.8,7.8,7.5c-5.3,0.3-10.4,0-15.7,0.1C-169.9,197.2-169,196.9-168.9,196.7"/>
		<path fill="#41A535" stroke="#2B2523" stroke-width="3" stroke-miterlimit="10" d="M-138.2,196.7c1.3-4.1,2.3-7.6,7.5-7.1
			c4,0.3,6.8,3.8,7.8,7.5c-5.3,0.3-10.4,0-15.7,0.1C-139.1,197.2-138.3,196.9-138.2,196.7"/>
		<path fill="#E5007F" stroke="#2B2523" stroke-width="3" stroke-miterlimit="10" d="M-163.3,84.1c-9.4-10,0.1-24.1,12.8-17.7
			c16.5,8.4-5.5,13.2-12.8,17"/>
		<path fill="none" stroke="#2B2523" stroke-width="3" stroke-linecap="round" stroke-miterlimit="10" d="M-137.9,63.5
			c-1.1,5.9-3.3,7.9-7.3,11.6"/>
		<path fill="none" stroke="#25211E" stroke-width="3" stroke-miterlimit="10" d="M-165.5,149.4c-2.9,4.2-6,8.3-8.5,12.8
			c-2.9,5.2-2.3,9.6-3.7,15"/>
		<path fill="none" stroke="#25211E" stroke-width="3" stroke-miterlimit="10" d="M-122.5,163.5c1.7,5.3,7.2,6.1,11.1,7.8"/>
	</g>
</g>
</svg>
