<?xml version="1.0" encoding="utf-8"?>
<!-- Generator: Adobe Illustrator 19.1.0, SVG Export Plug-In . SVG Version: 6.00 Build 0)  -->
<svg version="1.1" baseProfile="tiny" id="Lager_1" xmlns="http://www.w3.org/2000/svg" xmlns:xlink="http://www.w3.org/1999/xlink"
	 x="0px" y="0px" viewBox="-198 50.3 101.3 151.7" xml:space="preserve">
<g id="Lager_4">
	<g>
		<path fill="#FFFFFF" stroke="#25211E" stroke-width="3" stroke-miterlimit="10" d="M-165.3,173.8c-2.4,4.8-2.9,11.9-2.2,16.4"/>
		<path fill="#BC564A" stroke="#25211E" stroke-width="3" stroke-miterlimit="10" d="M-140.9,176c3.8,2.7,5.9,8.4,6,12.8"/>
		<path fill="#1AABDD" stroke="#2B2523" stroke-width="2" stroke-miterlimit="10" d="M-183.1,172.7c4.5,0.8,6.1,5.3,6.3,9.5
			c0,0.2-0.2,0.8-0.7,0.3c-2.6-4.2-9.8-4.2-13.8-1.4c-0.1,0.1-0.8,0.1-0.7-0.7C-192,180.4-189.5,171.6-183.1,172.7z"/>
		<path fill="#1AABDD" stroke="#2B2523" stroke-width="2" stroke-miterlimit="10" d="M-117.2,173.5c1.8-4.2,6.6-4.7,10.7-4
			c0.2,0,0.7,0.3,0.2,0.7c-4.7,1.6-6.3,8.6-4.5,13.1c0.1,0.2-0.1,0.8-0.8,0.5C-111.7,183.9-119.7,179.4-117.2,173.5z"/>
		<path fill="#FBBA00" stroke="#2B2523" stroke-width="3" stroke-miterlimit="10" d="M-165.9,88.3c6.8-9,29.4-16.9,39.2-10.2
			c13,8.9-0.6,99.3-4.7,100.4c-6.2,1.7-37,0.7-40.4-4.9C-175.2,168-171.3,95.5-165.9,88.3z"/>
		<path fill="#FFFFFF" stroke="#25211E" stroke-width="3" stroke-miterlimit="10" d="M-117.7,104.3c-1.3,10.6-9.9,13.5-12.3,13.3
			c-2.3-0.3-10.3-3.2-8.8-15.8c1-8,6.5-13.9,12.3-13.2C-118.4,89.5-116.7,96.3-117.7,104.3z"/>
		<path fill="#25211E" d="M-116.7,100.8c-0.7,5.4-4.7,9.4-9,8.9s-7.6-3-6.7-10.8c0.7-5.4,5.9-10.3,9-8.9
			C-119.4,91.8-116.1,95.4-116.7,100.8z"/>
		<path fill="none" stroke="#2B2523" stroke-width="2" stroke-linecap="round" stroke-miterlimit="10" d="M-146,142
			c0.3,3.4,5.6,5.4,8.9,5.4"/>
		<path fill="#2B2523" d="M-149,78.9l-2.1,2.5c-0.7,0.9-1.3,1.7-2,2.6c-1.3,1.7-2.5,3.5-3.5,5.4c-1,1.9-2,3.8-2.6,5.8
			c-0.3,1-0.5,2-0.5,3.1c0,0.3,0,0.5,0,0.8c0,0.3,0,0.6,0,0.9l-0.1,1.6c-0.4,4.3-0.7,8.6-1,12.9l-0.8,12.9
			c-0.3,4.3-0.5,8.6-0.7,12.9c-0.2,4.3-0.3,8.6-0.2,12.9c0.1,4.3,0.4,8.6,1.2,12.8c0.2,1.1,0.4,2.1,0.7,3.1s0.6,2.1,1,3.1
			c0.7,2,1.4,4.1,1.7,6.2h-0.1c0-0.2,0-0.4-0.1-0.5c-0.1-0.2-0.2-0.3-0.3-0.5c0.1,0.2,0.2,0.3,0.3,0.5s0.2,0.4,0.1,0.6v0.2v-0.2
			c-0.4-2.1-1.2-4.1-2-6.1c-0.4-1-0.8-2-1.1-3.1c-0.3-1-0.6-2.1-0.8-3.1c-0.9-4.2-1.3-8.5-1.5-12.9c-0.1-2.2-0.1-4.3-0.1-6.5
			s0.1-4.3,0.2-6.5c0.2-4.3,0.4-8.6,0.6-12.9c0.2-4.3,0.6-8.6,0.9-12.9s0.7-8.6,1-12.9l0.1-1.6c0-0.3,0.1-0.6,0-0.8
			c0-0.3,0-0.6,0-0.8c0.1-1.1,0.3-2.2,0.6-3.3c0.7-2.1,1.7-4,2.8-5.9c1.1-1.9,2.4-3.6,3.8-5.3c0.7-0.8,1.4-1.6,2.1-2.5L-149,78.9z"
			/>
		
			<ellipse transform="matrix(0.1193 -0.9929 0.9929 0.1193 -308.5648 -20.2582)" fill="#2B2523" cx="-165.7" cy="163.8" rx="1.4" ry="1.6"/>
		
			<ellipse transform="matrix(0.1193 -0.9929 0.9929 0.1193 -234.1731 -69.1995)" fill="#2B2523" cx="-156.1" cy="97.4" rx="1.4" ry="1.6"/>
		<path fill="#41A535" stroke="#2B2523" stroke-width="3" stroke-miterlimit="10" d="M-172.9,193.7c1.3-4.1,2.3-7.6,7.5-7.1
			c4,0.3,6.8,3.8,7.8,7.5c-5.3,0.3-6.4,0-11.7,0.1C-169.9,194.2-173,193.9-172.9,193.7"/>
		<path fill="#41A535" stroke="#2B2523" stroke-width="3" stroke-miterlimit="10" d="M-142.2,193.7c1.3-4.1,2.3-7.6,7.5-7.1
			c4,0.3,6.8,3.8,7.8,7.5c-5.3,0.3-10.4,0-15.7,0.1C-143.1,194.2-142.3,193.9-142.2,193.7"/>
		<path fill="#E5007F" stroke="#2B2523" stroke-width="3" stroke-miterlimit="10" d="M-158.3,81.7c-8.1-11.1,2.9-23.9,14.8-16
			c15.4,10.3-7,12.5-14.7,15.4"/>
		<path fill="none" stroke="#2B2523" stroke-width="3" stroke-linecap="round" stroke-miterlimit="10" d="M-130.6,64.3
			c-1.8,5.7-4.2,7.5-8.6,10.6"/>
		<path fill="none" stroke="#25211E" stroke-width="3" stroke-miterlimit="10" d="M-168.2,146.4c-3.4,3.8-6.9,7.5-9.9,11.7
			c-3.5,4.8-3.4,9.2-5.5,14.4"/>
		<path fill="none" stroke="#25211E" stroke-width="3" stroke-miterlimit="10" d="M-127.2,165.5c1.1,5.5,6.4,6.9,10.1,9"/>
	</g>
</g>
</svg>
