<?xml version="1.0" encoding="utf-8"?>
<!-- Generator: Adobe Illustrator 19.1.0, SVG Export Plug-In . SVG Version: 6.00 Build 0)  -->
<svg version="1.1" baseProfile="tiny" id="Lager_1" xmlns="http://www.w3.org/2000/svg" xmlns:xlink="http://www.w3.org/1999/xlink"
	 x="0px" y="0px" viewBox="-184 51.7 129.3 149.3" xml:space="preserve">
<g id="Lager_1_1_">
	<g>
		<path fill="#FBB817" stroke="#221F1F" stroke-width="3" stroke-miterlimit="10" d="M-149.7,156.6c-1.6-1.5-3.3-1.7-4-0.5l-5.3,10
			c-1.3,2.4-0.7,4.4,1.2,5.4l0,0c4.3,1.6,4.8-0.8,6.1-3.4l3.6-6.7L-149.7,156.6L-149.7,156.6z"/>
		<path fill="#41AC49" stroke="#221F1F" stroke-width="3" stroke-miterlimit="10" d="M-160.2,88.4c-2.1,0.1-3.6,1.7-3.3,3.5
			l2.4,14.8c0.3,1.8,2.2,3.1,4.4,3l0,0c2.1-0.1,3.6-1.7,3.3-3.5l-2.4-14.8C-156.1,89.6-158.1,88.3-160.2,88.4L-160.2,88.4z"/>
		<path fill="#41AC49" stroke="#221F1F" stroke-width="3" stroke-miterlimit="10" d="M-165.6,94.4c-1.2,0.1-2,0.9-1.8,1.9l1.3,8.2
			c0.2,1,1.2,1.7,2.4,1.7l0,0c1.2-0.1,2-0.9,1.8-1.9l-1.3-8.2C-163.3,95.1-164.4,94.3-165.6,94.4L-165.6,94.4z"/>
		<path fill="#00ACDA" stroke="#221F1F" stroke-width="3" stroke-miterlimit="10" d="M-95.1,121.4c0,0,18.4,40.3,1,54.6
			c-9.6,7.8-39.7,9.5-44.6-7.3c-1.9-6.4-1.4-31.5,6.8-40.1"/>
		<path fill="#41AC49" stroke="#221F1F" stroke-width="3" stroke-miterlimit="10" d="M-81.1,97c2.1-0.4,3.4-2.1,2.9-3.9l-4.1-14.4
			c-0.5-1.7-2.6-2.8-4.7-2.4l0,0c-2.1,0.4-3.4,2.1-2.9,3.9l4.1,14.4C-85.2,96.3-83.2,97.3-81.1,97L-81.1,97z"/>
		<path fill="#41AC49" stroke="#221F1F" stroke-width="3" stroke-miterlimit="10" d="M-76.4,90.4c1.2-0.2,1.9-1.2,1.6-2.1l-2.3-8
			c-0.3-1-1.4-1.6-2.6-1.3l0,0c-1.2,0.2-1.9,1.2-1.6,2.1l2.3,8C-78.8,90-77.6,90.6-76.4,90.4L-76.4,90.4z"/>
		<ellipse fill="#221F1F" cx="-91.4" cy="149.9" rx="1.6" ry="1.4"/>
		<ellipse fill="#221F1F" cx="-103.2" cy="172.3" rx="1.6" ry="1.4"/>
		<path fill="#E90D8B" stroke="#221F1F" stroke-width="3" stroke-miterlimit="10" d="M-153,79.3c9.2-10.2,47.4-15.4,55.8-10
			s15.1,42.6,8.1,49.6c-7.4,7.4-47.7,12.4-53.4,8.1C-150.4,120.9-160.8,87.9-153,79.3z"/>
		<path fill="#FBB817" stroke="#221F1F" stroke-width="3" stroke-miterlimit="10" d="M-148,83.3c7.7-8.4,39.8-12.5,46.8-8.1
			s12.6,34.7,6.8,40.5c-6.2,6-40,10.2-44.8,6.6C-145.8,117.3-154.5,90.4-148,83.3z"/>
		<path fill="none" stroke="#221F1F" stroke-width="3" stroke-miterlimit="10" d="M-136.1,135.7c-2.4,3.3-6.8,4.3-9.1,7.7
			c-2,2.9-3.3,7.4-5.2,9.6"/>
		<path fill="none" stroke="#221F1F" stroke-width="3" stroke-miterlimit="10" d="M-92.1,128.5c2.7,0.8,5.9,4.3,8,6.2
			c2,1.8,3.5,4,4.8,6.4c2.4,4.1,3.9,9.4,6,13.3"/>
		<path fill="#E90D8B" stroke="#221F1F" stroke-width="2" stroke-miterlimit="10" d="M-73.6,152.8c3.8,0.1,5.8,5.5,6.6,10.6
			c0,0.2,0,1-0.5,0.5c-2.8-4.7-8.7-3.3-11.5,0.9c-0.1,0.1-0.6,0.3-0.7-0.7C-79.6,164.1-79,152.7-73.6,152.8z"/>
		<path fill="#E90D8B" stroke="#221F1F" stroke-width="3" stroke-miterlimit="10" d="M-123.2,196c-4,0-7.9,0.2-11.8,0
			c0.7-2.7,2.9-5.4,5.8-5.6c3.9-0.3,4.6,1.1,5.6,4.2L-123.2,196z"/>
		<path fill="#E90D8B" stroke="#221F1F" stroke-width="3" stroke-miterlimit="10" d="M-91.5,196c-4,0-7.9,0.2-11.8,0
			c0.7-2.7,2.9-5.4,5.8-5.6c3.9-0.3,4.6,1.1,5.6,4.2L-91.5,196z"/>
		<path fill="#E90D8B" stroke="#221F1F" stroke-width="3" stroke-miterlimit="10" d="M-126.9,181.1c-1.2,2.4-0.8,6.6-0.3,9.3
			c0-0.3,0-0.6,0-1"/>
		<path fill="none" stroke="#221F1F" stroke-width="3" stroke-miterlimit="10" d="M-97.3,178.4c0,3.5-0.6,8,1.1,11"/>
		<path fill="#221F1F" d="M-105.6,126.7c0,0-0.1,0.8-0.4,2.3c-0.1,0.7-0.3,1.6-0.5,2.6s-0.3,2.2-0.5,3.4c-0.1,0.6-0.2,1.3-0.3,2
			c-0.1,0.7-0.2,1.4-0.2,2.1c-0.2,1.4-0.3,3-0.5,4.5c-0.1,1.6-0.3,3.2-0.4,4.9c0,0.8-0.1,1.7-0.1,2.5s0,1.7-0.1,2.5
			c-0.1,1.7,0,3.4,0,5c0,1.7,0.2,3.3,0.2,4.9c0.1,0.8,0.1,1.6,0.2,2.3c0.1,0.8,0.2,1.5,0.3,2.2c0.2,1.4,0.4,2.8,0.6,4
			c0.4,2.5,0.8,4.6,1,6c0.2,1.5,0.3,2.3,0.3,2.3s-0.2-0.8-0.5-2.3c-0.3-1.4-0.9-3.5-1.4-6c-0.3-1.2-0.5-2.6-0.8-4
			c-0.1-0.7-0.2-1.5-0.4-2.2c-0.1-0.8-0.2-1.5-0.3-2.3c-0.1-1.6-0.3-3.2-0.3-4.9c0-1.7-0.1-3.4,0-5.1c0-0.9,0.1-1.7,0.1-2.6
			c0-0.8,0.1-1.7,0.2-2.5c0.1-1.7,0.3-3.3,0.4-4.9s0.4-3.1,0.6-4.5c0.1-0.7,0.2-1.4,0.3-2.1c0.1-0.7,0.3-1.3,0.4-2
			c0.2-1.3,0.5-2.4,0.7-3.4c0.3-1,0.5-1.9,0.7-2.6C-105.8,127.5-105.6,126.7-105.6,126.7z"/>
		<path fill="#221F1F" d="M-86.8,155.7c0,0-0.2-0.1-0.5-0.3c-0.4-0.2-0.9-0.5-1.6-0.7c-0.7-0.3-1.5-0.5-2.5-0.8
			c-1-0.2-2.1-0.5-3.4-0.7c-1.2-0.2-2.6-0.4-4-0.6c-1.4-0.2-3-0.3-4.5-0.6c-0.4,0-0.8-0.1-1.2-0.1c-0.4,0-0.8,0-1.2-0.1
			c-0.8,0-1.6-0.1-2.5-0.1c-0.8-0.1-1.7,0-2.5,0s-1.7,0-2.5,0.1c-1.7,0-3.3,0.3-5,0.4c-1.6,0.2-3.3,0.5-4.8,0.7
			c-1.6,0.3-3.1,0.5-4.5,0.8c-0.7,0.1-1.4,0.3-2.1,0.4c-0.7,0.2-1.3,0.3-1.9,0.5c-1.2,0.3-2.3,0.7-3.3,0.9c-1,0.3-1.8,0.7-2.5,0.9
			c-1.3,0.6-2.1,1-2.1,1s0.7-0.4,2-1.2c0.7-0.3,1.5-0.7,2.5-1.1c1-0.3,2.1-0.8,3.3-1.1c0.6-0.2,1.3-0.4,1.9-0.6
			c0.7-0.2,1.4-0.3,2.1-0.5c1.4-0.4,2.9-0.7,4.5-1c1.6-0.3,3.2-0.6,4.9-0.8c0.8-0.1,1.7-0.2,2.5-0.3s1.7-0.2,2.6-0.2s1.7,0,2.6,0
			s1.7,0,2.5,0.1s1.7,0.1,2.5,0.2c0.4,0,0.8,0.1,1.2,0.1c0.4,0.1,0.8,0.1,1.2,0.2c1.6,0.2,3.1,0.4,4.5,0.7c1.4,0.3,2.8,0.5,4,0.8
			c0.6,0.2,1.2,0.3,1.8,0.4c0.6,0.2,1.1,0.3,1.6,0.5c1,0.4,1.8,0.7,2.5,1s1.2,0.6,1.5,0.8C-87,155.6-86.8,155.7-86.8,155.7z"/>
		<path fill="#FFFFFF" stroke="#221F1F" stroke-width="3" stroke-miterlimit="10" d="M-111,84.4c-3.5-0.1-6.4,6.6-5.3,9.7
			c1.3,3.7,6,4.1,8.9,2.2c4.3-3,2.9-9.8-1.7-11.9C-109.1,84.4-111,84.4-111,84.4z"/>
		<path fill="#FFFFFF" stroke="#221F1F" stroke-width="3" stroke-miterlimit="10" d="M-132.8,86.8c-6.7,0.8-5.9,14.3,3.7,12.1
			c3.8-0.8,4.1-6.3,2.4-9.5C-128.1,86.7-132.8,86.8-132.8,86.8z"/>
		<ellipse fill="#221F1F" cx="-132" cy="95.1" rx="4.3" ry="4.2"/>
		<ellipse fill="#221F1F" cx="-111.3" cy="93" rx="4.3" ry="4.2"/>
		<path fill="none" stroke="#221F1F" stroke-width="2" stroke-linecap="round" stroke-miterlimit="10" d="M-124.8,112.1
			c1.3,1.9,3.4,2.5,5.7,2.4c1.5-0.1,6.5-2.6,5.1-3"/>
		<path fill="none" stroke="#221F1F" stroke-width="3" stroke-miterlimit="10" d="M-160.4,88.1c-1-23.6,22-26,36.1-28.1
			c8.7-1.4,15.2-2.8,23.5,0.1c7.9,2.8,10.6,9.1,13.6,16.1"/>
		<path fill="none" stroke="#221F1F" stroke-width="2" stroke-miterlimit="10" d="M-156.8,109.7c-0.8,6.4-2.1,13.6-6.7,19.1
			c-6,7-10.7,12.6-12.6,21.9c-1.4,7.1-1,16.8,6.3,20.9c4.6,2.6,8.7,0.5,11.7-1.6"/>
		<path fill="#E90D8B" stroke="#221F1F" stroke-width="2" stroke-miterlimit="10" d="M-150.5,153c3.6,1.4,3.7,6.7,2.8,11.4
			c0,0.2-0.3,0.8-0.6,0.3c-1.1-5.1-7.1-5.8-11.1-3.2c-0.1,0.1-0.7,0-0.4-0.8C-159.8,160.7-155.4,151.1-150.5,153z"/>
	</g>
</g>
</svg>
