<?xml version="1.0" encoding="utf-8"?>
<!-- Generator: Adobe Illustrator 19.1.0, SVG Export Plug-In . SVG Version: 6.00 Build 0)  -->
<svg version="1.1" baseProfile="tiny" id="Lager_1" xmlns="http://www.w3.org/2000/svg" xmlns:xlink="http://www.w3.org/1999/xlink"
	 x="0px" y="0px" viewBox="-184 51.7 129.3 149.3" xml:space="preserve">
<g id="Lager_2">
	<g>
		<path fill="#FBB817" stroke="#221F1F" stroke-width="3" stroke-miterlimit="10" d="M-149.7,157c-1.6-1.5-3.3-1.7-4-0.5l-5.3,10
			c-1.3,2.4-0.7,4.4,1.2,5.4l0,0c4.3,1.6,4.8-0.8,6.1-3.4l3.6-6.7L-149.7,157L-149.7,157z"/>
		<path fill="#41AC49" stroke="#221F1F" stroke-width="3" stroke-miterlimit="10" d="M-157.1,85.3c-2.1-0.1-3.7,1.4-3.6,3.2l1,14.9
			c0.1,1.8,1.9,3.3,4.1,3.4l0,0c2.1,0.1,3.7-1.4,3.6-3.2l-1-14.9C-153.1,86.9-155,85.4-157.1,85.3L-157.1,85.3z"/>
		<path fill="#41AC49" stroke="#221F1F" stroke-width="3" stroke-miterlimit="10" d="M-163,90.8c-1.2,0-2.1,0.8-2,1.8l0.6,8.3
			c0.1,1,1.1,1.8,2.3,1.9l0,0c1.2,0,2.1-0.8,2-1.8l-0.6-8.3C-160.8,91.7-161.8,90.8-163,90.8L-163,90.8z"/>
		<path fill="#00ACDA" stroke="#221F1F" stroke-width="3" stroke-miterlimit="10" d="M-95,121.9c0,0,18.4,40.3,1,54.6
			c-9.6,7.8-39.7,9.5-44.6-7.3c-1.9-6.4-1.4-31.5,6.8-40.1"/>
		<path fill="#41AC49" stroke="#221F1F" stroke-width="3" stroke-miterlimit="10" d="M-79.1,101.1c2.1-0.2,3.6-1.8,3.2-3.6
			l-2.8-14.7C-79,81-81,79.7-83.1,80l0,0c-2.1,0.2-3.6,1.8-3.2,3.6l2.8,14.7C-83.2,100-81.2,101.3-79.1,101.1L-79.1,101.1z"/>
		<path fill="#41AC49" stroke="#221F1F" stroke-width="3" stroke-miterlimit="10" d="M-73.9,95c1.2-0.1,2-1,1.8-2l-1.6-8.2
			c-0.2-1-1.3-1.7-2.5-1.6l0,0c-1.2,0.1-2,1-1.8,2l1.6,8.2C-76.2,94.4-75,95.1-73.9,95L-73.9,95z"/>
		<ellipse fill="#221F1F" cx="-91.3" cy="150.3" rx="1.6" ry="1.4"/>
		<ellipse fill="#221F1F" cx="-103.1" cy="172.8" rx="1.6" ry="1.4"/>
		<path fill="#E90D8B" stroke="#221F1F" stroke-width="3" stroke-miterlimit="10" d="M-149.1,76.9c10.1-9.4,48.6-10.9,56.5-4.8
			s11.1,43.8,3.5,50.1c-8.1,6.7-48.6,8-53.9,3.1C-150.3,118.6-157.6,84.8-149.1,76.9z"/>
		<path fill="#FBB817" stroke="#221F1F" stroke-width="3" stroke-miterlimit="10" d="M-144.5,81.4c8.4-7.6,40.8-8.8,47.4-3.8
			s9.4,35.8,3,40.9c-6.8,5.5-40.8,6.4-45.2,2.5C-145.4,115.4-151.6,87.8-144.5,81.4z"/>
		<path fill="none" stroke="#221F1F" stroke-width="3" stroke-miterlimit="10" d="M-136,136.2c-2.4,3.3-6.8,4.3-9.1,7.7
			c-2,2.9-3.3,7.4-5.2,9.6"/>
		<path fill="none" stroke="#221F1F" stroke-width="3" stroke-miterlimit="10" d="M-92.1,129c2.7,0.8,5.9,4.3,8,6.2
			c2,1.8,3.5,4,4.8,6.4c2.4,4.1,3.9,9.4,6,13.3"/>
		<path fill="#E90D8B" stroke="#221F1F" stroke-width="2" stroke-miterlimit="10" d="M-73.6,153.3c3.8,0.1,5.8,5.5,6.6,10.6
			c0,0.2,0,1-0.5,0.5c-2.8-4.7-8.7-3.3-11.5,0.9c-0.1,0.1-0.6,0.3-0.7-0.7C-79.6,164.6-78.9,153.1-73.6,153.3z"/>
		<path fill="#E90D8B" stroke="#221F1F" stroke-width="3" stroke-miterlimit="10" d="M-123.2,196.4c-4,0-7.9,0.2-11.8,0
			c0.7-2.7,2.9-5.4,5.8-5.6c3.9-0.3,4.6,1.1,5.6,4.2L-123.2,196.4z"/>
		<path fill="#E90D8B" stroke="#221F1F" stroke-width="3" stroke-miterlimit="10" d="M-91.4,196.4c-4,0-7.9,0.2-11.8,0
			c0.7-2.7,2.9-5.4,5.8-5.6c3.9-0.3,4.6,1.1,5.6,4.2L-91.4,196.4z"/>
		<path fill="#E90D8B" stroke="#221F1F" stroke-width="3" stroke-miterlimit="10" d="M-126.9,181.6c-1.2,2.4-0.8,6.6-0.3,9.3
			c0-0.3,0-0.6,0-1"/>
		<path fill="none" stroke="#221F1F" stroke-width="3" stroke-miterlimit="10" d="M-97.2,178.9c0,3.5-0.6,8,1.1,11"/>
		<path fill="#221F1F" d="M-105.6,127.2c0,0-0.2,0.8-0.4,2.3c-0.3,1.5-0.6,3.5-1,6s-0.7,5.4-1,8.6c-0.3,3.2-0.5,6.5-0.6,9.9
			s0,6.7,0.2,9.9c0.3,3.1,0.7,6.1,1.1,8.6s0.8,4.6,1,6c0.2,1.5,0.3,2.3,0.3,2.3s-0.2-0.8-0.5-2.3c-0.3-1.4-0.9-3.5-1.4-6
			s-1.1-5.4-1.4-8.6c-0.3-3.2-0.4-6.6-0.4-10c0.1-3.4,0.4-6.8,0.7-10c0.3-3.2,0.8-6.1,1.3-8.6s1-4.6,1.4-6
			C-105.8,128-105.6,127.2-105.6,127.2z"/>
		<path fill="#221F1F" d="M-86.7,156.2c0,0-0.2-0.1-0.5-0.3c-0.3-0.2-0.9-0.4-1.6-0.7s-1.5-0.6-2.5-0.8c-1-0.3-2.1-0.5-3.4-0.7
			c-1.2-0.2-2.6-0.4-4-0.6c-1.4-0.2-3-0.4-4.5-0.6c-3.1-0.3-6.5-0.5-9.9-0.3c-3.4,0.1-6.7,0.6-9.8,1.1c-3.1,0.5-6,1.1-8.5,1.7
			c-1.2,0.3-2.3,0.6-3.3,0.9s-1.8,0.6-2.5,0.9c-0.7,0.3-1.2,0.5-1.6,0.7c-0.4,0.2-0.5,0.3-0.5,0.3s0.2-0.1,0.5-0.3
			c0.3-0.2,0.8-0.5,1.5-0.8c0.7-0.3,1.5-0.7,2.5-1.1s2.1-0.8,3.3-1.1c2.4-0.7,5.3-1.4,8.5-2c3.1-0.6,6.5-1.1,9.9-1.3
			c3.4-0.1,6.8,0,10,0.4c1.6,0.2,3.1,0.5,4.5,0.7c1.4,0.3,2.8,0.5,4,0.8c2.5,0.5,4.5,1.3,5.9,1.9c0.7,0.3,1.2,0.6,1.5,0.8
			C-86.9,156-86.7,156.2-86.7,156.2z"/>
		<path fill="#FFFFFF" stroke="#221F1F" stroke-width="3" stroke-miterlimit="10" d="M-107.8,85.8c-3.5-0.4-7,6-6.2,9.1
			c1,3.8,5.6,4.7,8.7,3c4.6-2.5,3.8-9.5-0.6-12L-107.8,85.8z"/>
		<path fill="#FFFFFF" stroke="#221F1F" stroke-width="3" stroke-miterlimit="10" d="M-129.7,86.2c-6.8,0.1-7.2,13.7,2.6,12.4
			c3.8-0.5,4.7-5.9,3.3-9.3C-125,86.6-129.7,86.2-129.7,86.2z"/>
		
			<ellipse transform="matrix(9.185960e-002 -0.9958 0.9958 9.185960e-002 -211.8966 -43.1374)" fill="#221F1F" cx="-129.6" cy="94.6" rx="4.2" ry="4.3"/>
		
			<ellipse transform="matrix(9.185960e-002 -0.9958 0.9958 9.185960e-002 -192.8958 -22.7126)" fill="#221F1F" cx="-108.9" cy="94.4" rx="4.2" ry="4.3"/>
		<path fill="none" stroke="#221F1F" stroke-width="2" stroke-linecap="round" stroke-miterlimit="10" d="M-124,112.2
			c1.1,2,3.2,2.8,5.5,2.9c1.5,0.1,6.7-2,5.3-2.5"/>
		<path fill="none" stroke="#221F1F" stroke-width="3" stroke-miterlimit="10" d="M-157.2,85c1.1-23.7,24.2-23.9,38.5-24.8
			c8.7-0.5,15.3-1.4,23.4,2.3c7.6,3.5,9.7,10.1,12,17.3"/>
		<path fill="none" stroke="#221F1F" stroke-width="2" stroke-miterlimit="10" d="M-155.7,106.8c-1.3,6.2-3.3,13.4-8.4,18.3
			c-6.6,6.5-10.1,16.7-11.9,26c-1.4,7.1-1,16.8,6.3,20.9c4.6,2.6,8.7,0.5,11.7-1.6"/>
		<path fill="#E90D8B" stroke="#221F1F" stroke-width="2" stroke-miterlimit="10" d="M-150.4,153.5c3.6,1.4,3.7,6.7,2.8,11.4
			c0,0.2-0.3,0.8-0.6,0.3c-1.1-5.1-7.1-5.8-11.1-3.2c-0.1,0.1-0.7,0-0.4-0.8C-159.7,161.1-155.4,151.5-150.4,153.5z"/>
	</g>
</g>
</svg>
