<?xml version="1.0" encoding="utf-8"?>
<!-- Generator: Adobe Illustrator 19.1.0, SVG Export Plug-In . SVG Version: 6.00 Build 0)  -->
<svg version="1.1" baseProfile="tiny" id="Lager_1" xmlns="http://www.w3.org/2000/svg" xmlns:xlink="http://www.w3.org/1999/xlink"
	 x="0px" y="0px" viewBox="-184 51.7 129.3 149.3" xml:space="preserve">
<g id="Lager_3">
	<g>
		<path fill="#FBB817" stroke="#221F1F" stroke-width="3" stroke-miterlimit="10" d="M-152.5,150.8c-0.7-2-2.2-3-3.3-2.3l-9.4,6.3
			c-2.3,1.5-2.7,3.6-1.5,5.3l0,0c3,3.4,4.6,1.6,7-0.1l6.3-4.2L-152.5,150.8L-152.5,150.8z"/>
		<path fill="#41AC49" stroke="#221F1F" stroke-width="3" stroke-miterlimit="10" d="M-153.5,83c-2.1-0.3-3.9,0.9-4,2.7l-0.7,15
			c-0.1,1.8,1.6,3.5,3.7,3.8l0,0c2.1,0.3,3.9-0.9,4-2.7l0.7-14.9C-149.8,85-151.4,83.3-153.5,83L-153.5,83z"/>
		<path fill="#41AC49" stroke="#221F1F" stroke-width="3" stroke-miterlimit="10" d="M-160,87.7c-1.2-0.2-2.2,0.5-2.2,1.5l-0.4,8.3
			c0,1,0.9,2,2,2.1l0,0c1.2,0.2,2.2-0.5,2.2-1.5l0.4-8.3C-157.9,88.9-158.9,87.9-160,87.7L-160,87.7z"/>
		<path fill="#00ACDA" stroke="#221F1F" stroke-width="3" stroke-miterlimit="10" d="M-95,121.9c0,0,18.4,40.3,1,54.6
			c-9.6,7.8-39.7,9.5-44.6-7.3c-1.9-6.4-1.4-31.5,6.8-40.1"/>
		<path fill="#41AC49" stroke="#221F1F" stroke-width="3" stroke-miterlimit="10" d="M-77.8,107.3c2.1,0,3.7-1.4,3.6-3.2l-1.1-14.9
			c-0.1-1.8-2-3.3-4.1-3.3l0,0c-2.1,0-3.7,1.4-3.6,3.2l1.1,14.9C-81.7,105.8-79.9,107.3-77.8,107.3L-77.8,107.3z"/>
		<path fill="#41AC49" stroke="#221F1F" stroke-width="3" stroke-miterlimit="10" d="M-71.9,101.8c1.2,0,0-7.9-0.2-8.9l1.5-1.2
			c-0.1-1-1.1-1.8-2.3-1.8l0,0c-1.2,0-2.1,0.8-2,1.8l0.6,8.3C-74.1,101-73.1,101.8-71.9,101.8L-71.9,101.8z"/>
		<ellipse fill="#221F1F" cx="-91.3" cy="150.3" rx="1.6" ry="1.4"/>
		<ellipse fill="#221F1F" cx="-103.1" cy="172.8" rx="1.6" ry="1.4"/>
		<path fill="#E90D8B" stroke="#221F1F" stroke-width="3" stroke-miterlimit="10" d="M-144.7,75.5c11-8.2,49.6-5.4,56.6,1.5
			c7.1,7,6.2,44.8-2.1,50.2c-8.8,5.8-49.2,2.5-53.9-2.9C-150.5,116.8-154,82.4-144.7,75.5z"/>
		<path fill="#FBB817" stroke="#221F1F" stroke-width="3" stroke-miterlimit="10" d="M-140.6,80.4c9.2-6.6,41.5-4.2,47.5,1.5
			c6,5.7,5.4,36.6-1.5,41c-7.3,4.7-41.3,1.8-45.2-2.6C-145.3,114.2-148.4,86-140.6,80.4z"/>
		<path fill="none" stroke="#221F1F" stroke-width="3" stroke-miterlimit="10" d="M-136,136.2c-2.4,3.3-5.5,5.9-9.1,7.7
			c-3.6,1.8-3.6,2.4-6.2,3.5"/>
		<path fill="none" stroke="#221F1F" stroke-width="3" stroke-miterlimit="10" d="M-92.1,129c2.7,0.8,5.9,4.3,8,6.2
			c2,1.8,3.5,4,4.8,6.4c2.4,4.1,5,5.9,9.1,7.4"/>
		<path fill="#E90D8B" stroke="#221F1F" stroke-width="2" stroke-miterlimit="10" d="M-71.4,148.1c2.9-2.5,8,0.2,12,3.5
			c0.2,0.1,0.6,0.7,0,0.7c-5.3-1.7-8.7,3.3-8,8.3c0,0.2-0.3,0.7-1-0.1C-68.4,160.5-75.5,151.5-71.4,148.1z"/>
		<path fill="#E90D8B" stroke="#221F1F" stroke-width="3" stroke-miterlimit="10" d="M-123.2,196.4c-4,0-7.9,0.2-11.8,0
			c0.7-2.7,2.9-5.4,5.8-5.6c3.9-0.3,4.6,1.1,5.6,4.2L-123.2,196.4z"/>
		<path fill="#E90D8B" stroke="#221F1F" stroke-width="3" stroke-miterlimit="10" d="M-87.9,195.4c-4,0-7.9,0.2-11.8,0
			c0.7-2.7,2.9-5.4,5.8-5.6c3.9-0.3,4.6,1.1,5.6,4.2L-87.9,195.4z"/>
		<path fill="#E90D8B" stroke="#221F1F" stroke-width="3" stroke-miterlimit="10" d="M-126.9,181.6c-1.2,2.4-0.8,6.6-0.3,9.3
			c0-0.3,0-0.6,0-1"/>
		<path fill="none" stroke="#221F1F" stroke-width="3" stroke-miterlimit="10" d="M-97.2,178.9c0,3.5,2.9,6.9,4.6,10"/>
		<path fill="#221F1F" d="M-105.6,127.2c0,0-0.2,0.8-0.4,2.3c-0.3,1.5-0.6,3.5-1,6s-0.7,5.4-1,8.6c-0.3,3.2-0.5,6.5-0.6,9.9
			s0,6.7,0.2,9.9c0.3,3.1,0.7,6.1,1.1,8.6s0.8,4.6,1,6c0.2,1.5,0.3,2.3,0.3,2.3s-0.2-0.8-0.5-2.3c-0.3-1.4-0.9-3.5-1.4-6
			s-1.1-5.4-1.4-8.6c-0.3-3.2-0.4-6.6-0.4-10c0.1-3.4,0.4-6.8,0.7-10c0.3-3.2,0.8-6.1,1.3-8.6s1-4.6,1.4-6
			C-105.8,128-105.6,127.2-105.6,127.2z"/>
		<path fill="#221F1F" d="M-86.7,156.2c0,0-0.2-0.1-0.5-0.3c-0.3-0.2-0.9-0.4-1.6-0.7s-1.5-0.6-2.5-0.8c-1-0.3-2.1-0.5-3.4-0.7
			c-1.2-0.2-2.6-0.4-4-0.6c-1.4-0.2-3-0.4-4.5-0.6c-3.1-0.3-6.5-0.5-9.9-0.3c-3.4,0.1-6.7,0.6-9.8,1.1c-3.1,0.5-6,1.1-8.5,1.7
			c-1.2,0.3-2.3,0.6-3.3,0.9s-1.8,0.6-2.5,0.9c-0.7,0.3-1.2,0.5-1.6,0.7c-0.4,0.2-0.5,0.3-0.5,0.3s0.2-0.1,0.5-0.3
			c0.3-0.2,0.8-0.5,1.5-0.8c0.7-0.3,1.5-0.7,2.5-1.1s2.1-0.8,3.3-1.1c2.4-0.7,5.3-1.4,8.5-2c3.1-0.6,6.5-1.1,9.9-1.3
			c3.4-0.1,6.8,0,10,0.4c1.6,0.2,3.1,0.5,4.5,0.7c1.4,0.3,2.8,0.5,4,0.8c2.5,0.5,4.5,1.3,5.9,1.9c0.7,0.3,1.2,0.6,1.5,0.8
			C-86.9,156-86.7,156.2-86.7,156.2z"/>
		<path fill="#FFFFFF" stroke="#221F1F" stroke-width="3" stroke-miterlimit="10" d="M-104.6,89c-3.4-0.8-7.7,5.2-7.2,8.4
			c0.6,3.9,5.1,5.3,8.3,3.9c4.8-2,4.9-9,0.8-12L-104.6,89z"/>
		<path fill="#FFFFFF" stroke="#221F1F" stroke-width="3" stroke-miterlimit="10" d="M-126.4,86.9c-6.8-0.6-8.7,12.8,1.2,12.6
			c3.9-0.1,5.3-5.3,4.3-8.8C-121.8,87.8-126.4,86.9-126.4,86.9z"/>
		
			<ellipse transform="matrix(0.2023 -0.9793 0.9793 0.2023 -194.875 -48.6603)" fill="#221F1F" cx="-127.3" cy="95.3" rx="4.2" ry="4.3"/>
		
			<ellipse transform="matrix(0.2023 -0.9793 0.9793 0.2023 -180.3204 -26.7674)" fill="#221F1F" cx="-106.6" cy="97.3" rx="4.2" ry="4.3"/>
		<path fill="none" stroke="#221F1F" stroke-width="2" stroke-linecap="round" stroke-miterlimit="10" d="M-123.6,113.4
			c0.9,2.1,2.9,3.2,5.1,3.5c1.5,0.2,6.9-1.2,5.6-1.9"/>
		<path fill="none" stroke="#221F1F" stroke-width="3" stroke-miterlimit="10" d="M-153.7,82.6c3.8-23.4,26.8-21,41-20.3
			c8.8,0.4,15.4,0.3,23,4.9c7.2,4.4,8.5,11.1,10,18.5"/>
		<path fill="none" stroke="#221F1F" stroke-width="2" stroke-miterlimit="10" d="M-154.5,104.5c-2,6.1-4.8,12.9-10.4,17.3
			c-7.3,5.7-9,7.1-12.9,15.8c-3,6.6-4.8,16.2,1.4,21.8c3.9,3.6,6.7-0.2,10.3-0.7"/>
		<path fill="#E90D8B" stroke="#221F1F" stroke-width="2" stroke-miterlimit="10" d="M-151.5,147.3c2.5,2.9,0.1,7.7-2.9,11.4
			c-0.1,0.2-0.7,0.6-0.7-0.1c1.4-5-3.5-8.5-8.2-8.1c-0.2,0-0.6-0.3,0-0.9C-163.3,149.7-154.9,143.3-151.5,147.3z"/>
	</g>
</g>
</svg>
