<?xml version="1.0" encoding="utf-8"?>
<!-- Generator: Adobe Illustrator 19.1.0, SVG Export Plug-In . SVG Version: 6.00 Build 0)  -->
<svg version="1.1" baseProfile="tiny" id="Lager_1" xmlns="http://www.w3.org/2000/svg" xmlns:xlink="http://www.w3.org/1999/xlink"
	 x="0px" y="0px" viewBox="-173 32.5 151.4 187.5" xml:space="preserve">
<g id="Lager_1_1_">
	<g>
		<path fill="#E32486" stroke="#221F1F" stroke-width="3" stroke-miterlimit="10" d="M-79.7,59.6c-0.4-0.4-0.8-0.4-0.9-0.9
			c4.5-4.4,8.5-10.5,10-16.6c1.7,5-0.7,16.7-2.5,19.4"/>
		<path fill="#E32486" stroke="#221F1F" stroke-width="3" stroke-miterlimit="10" d="M-124.3,60.7c-2.8-5.2-4.4-10.3-4.4-16
			c3,3,8.6,15.9,12.9,15"/>
		
			<ellipse transform="matrix(-0.2966 -0.955 0.955 -0.2966 -208.864 -66.4376)" fill="#10ACDA" stroke="#221F1F" stroke-width="3" stroke-miterlimit="10" cx="-128.9" cy="43.7" rx="3.4" ry="4.3"/>
		
			<ellipse transform="matrix(0.346 -0.9382 0.9382 0.346 -84.3099 -39.9497)" fill="#10ACDA" stroke="#221F1F" stroke-width="3" stroke-miterlimit="10" cx="-70.8" cy="40.5" rx="3.9" ry="4.5"/>
		<path fill="#FBB81E" stroke="#221F1F" stroke-width="2" stroke-miterlimit="10" d="M-151.7,160.3c6.1-1.1,7.8,3.9,9.2,7.8
			c0.1,0.2,0.1,0.8-0.5,0.5c-3.7-3.3-10.6-1.1-13.6,2.6c-0.1,0.1-0.7,0.4-0.9-0.4C-157.5,170.8-159.4,161.7-151.7,160.3z"/>
		<line fill="none" stroke="#221F1F" stroke-width="3" stroke-miterlimit="10" x1="-111.8" y1="190.8" x2="-111.8" y2="208.8"/>
		<line fill="none" stroke="#221F1F" stroke-width="3" stroke-miterlimit="10" x1="-65.5" y1="190" x2="-60.9" y2="209.6"/>
		<path fill="#E32486" stroke="#221F1F" stroke-width="3" stroke-miterlimit="10" d="M-67.1,216.4c6.1,0,11.6,0.2,17.7-0.2
			c-1.2-4.2-4.4-8.4-9.1-8.7c-6.1-0.5-7.8,3.2-9.3,8.1C-67.8,215.6-67.7,216.4-67.1,216.4z"/>
		<path fill="#E32486" stroke="#221F1F" stroke-width="3" stroke-miterlimit="10" d="M-120.3,216.4c6.1,0,11.6,0.2,17.7-0.2
			c-1.2-4.2-4.4-8.4-9.1-8.7c-6.1-0.5-7.8,3.2-9.3,8.1C-121,215.6-120.9,216.4-120.3,216.4z"/>
		<path fill="#43AD4A" stroke="#1C1A1B" stroke-width="3" stroke-miterlimit="10" d="M-135.7,62.9c-9.7,6.7-5.4,94.7,0,117.2
			c6.2,26.1,70.4,18.6,77.8,9.2c8.7-11,5.2-116-3.2-122.6C-89,45-135.7,62.9-135.7,62.9z"/>
		<path fill="#FFFFFF" stroke="#1C1A1B" stroke-width="3" stroke-miterlimit="10" d="M-67.5,97.3c0,7.5-6.7,10.3-8.7,10.3
			c-1.9,0-8.7-1.3-8.7-10.3c0-5.7,3.9-10.3,8.7-10.3C-69.5,87-67.5,91.6-67.5,97.3z"/>
		<path fill="#FFFFFF" stroke="#1C1A1B" stroke-width="3" stroke-miterlimit="10" d="M-103.5,98.2c0,2,0,8.9-7,8.9
			c-5.4,0-9.6-3.8-9.7-8.9c0-3.4,2.4-8.9,7.1-8.9C-107.6,89.4-103.5,93.6-103.5,98.2z"/>
		<ellipse fill="#1C1A1B" cx="-75.9" cy="100.8" rx="7" ry="6.3"/>
		<ellipse fill="#1C1A1B" cx="-111.8" cy="100.8" rx="7" ry="6.3"/>
		<path fill="none" stroke="#221F1F" stroke-width="3" stroke-linecap="round" stroke-miterlimit="10" d="M-101.6,118.5
			c3.3,7.2,16.7,6.1,16.7-2.1"/>
		<path fill="none" stroke="#221F1F" stroke-width="2" stroke-miterlimit="10" d="M-83.8,153c3.6,0.6,5.5,0.3,9.2,0.1
			c4.6-0.2,7.9-2.1,12.2-3c0.4,6.2,1.3,12.1,1.3,18.4c0,2,0.5,5.9-0.9,7.5c-1.4,1.7-5.6,2.1-7.6,2.4c-3,0.5-6.4,0.1-9.5-0.2
			c-3.5-0.4-3.9-0.7-4.3-4c-0.4-3.7-0.6-7.5-0.6-11.3c0-3.3-1.3-6.9-0.9-10.1L-83.8,153z"/>
		<ellipse fill="#FBB81E" stroke="#221F1F" stroke-width="2" stroke-miterlimit="10" cx="-78.5" cy="165.7" rx="2.2" ry="1.9"/>
		<path fill="#221F1F" d="M-117.2,58.6c0,0-0.1,0.5-0.2,1.5s-0.3,2.5-0.6,4.3c-0.3,1.9-0.8,4.1-1.3,6.7c-0.5,2.6-1.1,5.5-1.7,8.7
			c-0.6,3.2-1,6.7-1.5,10.3c-0.5,3.7-0.9,7.6-1.2,11.6c-0.4,4-0.7,8.2-0.9,12.4c-0.2,4.2-0.2,8.5-0.2,12.9c0,8.6,0.2,17.2,0.9,25.3
			c0.3,4,0.8,7.9,1.2,11.6c0.5,3.7,1.1,7.1,1.7,10.3c0.6,3.2,1.3,6.1,1.9,8.6c0.3,1.3,0.7,2.5,1,3.6s0.6,2.1,0.9,3
			c0.5,1.8,1.1,3.2,1.4,4.2c0.3,1,0.5,1.5,0.5,1.5s-0.2-0.5-0.6-1.4c-0.3-1-0.9-2.3-1.5-4.1c-0.3-0.9-0.6-1.9-1-3
			c-0.3-1.1-0.7-2.3-1.1-3.5c-0.7-2.5-1.5-5.4-2.1-8.6c-0.7-3.2-1.3-6.6-1.9-10.3c-0.5-3.7-1.1-7.6-1.4-11.6
			c-0.7-8.1-1-16.7-1.1-25.4c0-4.3,0.1-8.7,0.3-12.9c0.2-4.3,0.5-8.4,0.9-12.5c0.4-4,0.9-7.9,1.4-11.6s1-7.2,1.6-10.3
			c0.6-3.2,1.3-6.1,1.9-8.6c0.6-2.6,1.1-4.8,1.5-6.7c0.4-1.9,0.6-3.3,0.8-4.3C-117.2,59.1-117.2,58.6-117.2,58.6z"/>
		<ellipse fill="#221F1F" cx="-124.7" cy="71.5" rx="1.6" ry="1.4"/>
		<ellipse fill="#221F1F" cx="-115.2" cy="176.3" rx="1.6" ry="1.4"/>
		<path fill="none" stroke="#221F1F" stroke-width="3" stroke-miterlimit="10" d="M-52.8,128.9c-0.1,2.6,3.1,1.1,5.1,0.6
			c3.7-1,3.3-0.6,5.5-4c2.6-4,5.5-9.2,7.3-13.5"/>
		<path fill="none" stroke="#221F1F" stroke-width="3" stroke-miterlimit="10" d="M-141.4,133.8c-5.6,1.8-10.4,4-11,10
			c-0.5,4.9-0.5,13.8,1,17.1"/>
		<path fill="#FBB81E" stroke="#221F1F" stroke-width="2" stroke-miterlimit="10" d="M-34.9,112c-5.2-3.2-3.3-7.4-1.8-11.2
			c0.1-0.2,0.5-0.6,0.7,0c0.7,4.9,7.2,7.8,11.9,7c0.2,0,0.8,0.2,0.4,0.9C-23.6,108.7-28.2,116.2-34.9,112z"/>
	</g>
</g>
</svg>
