<?xml version="1.0" encoding="utf-8"?>
<!-- Generator: Adobe Illustrator 19.1.0, SVG Export Plug-In . SVG Version: 6.00 Build 0)  -->
<svg version="1.1" baseProfile="tiny" id="Lager_1" xmlns="http://www.w3.org/2000/svg" xmlns:xlink="http://www.w3.org/1999/xlink"
	 x="0px" y="0px" viewBox="-173 32.5 151.4 187.5" xml:space="preserve">
<g id="Lager_3">
	<g>
		<path fill="#E32486" stroke="#221F1F" stroke-width="3" stroke-miterlimit="10" d="M-87,58.7c-0.5-0.4-0.8-0.3-1-0.7
			c4-4.9,7.1-11.5,7.8-17.7c2.3,4.8,1.3,16.6-0.1,19.6"/>
		<path fill="#E32486" stroke="#221F1F" stroke-width="3" stroke-miterlimit="10" d="M-131.1,65.3c-3.4-4.8-5.7-9.7-6.4-15.3
			c3.3,2.6,10.5,14.7,14.7,13.3"/>
		
			<ellipse transform="matrix(-0.4128 -0.9108 0.9108 -0.4128 -239.1794 -56.2189)" fill="#10ACDA" stroke="#221F1F" stroke-width="3" stroke-miterlimit="10" cx="-137.7" cy="49" rx="3.4" ry="4.3"/>
		
			<ellipse transform="matrix(0.2269 -0.9739 0.9739 0.2269 -99.8247 -48.5574)" fill="#10ACDA" stroke="#221F1F" stroke-width="3" stroke-miterlimit="10" cx="-80.5" cy="38.6" rx="3.9" ry="4.5"/>
		<path fill="#FBB81E" stroke="#221F1F" stroke-width="2" stroke-miterlimit="10" d="M-160.5,121.6c5.6-2.5,4.3-7.6,3.3-11.6
			c0-0.2-0.4-0.7-0.7-0.1c-1.3,4.8-8.2,6.8-12.7,5.4c-0.2,0-0.8,0.1-0.5,0.8C-171.2,116.1-167.7,124.8-160.5,121.6z"/>
		<line fill="none" stroke="#221F1F" stroke-width="3" stroke-miterlimit="10" x1="-102.5" y1="192.8" x2="-111.8" y2="208.8"/>
		<line fill="none" stroke="#221F1F" stroke-width="3" stroke-miterlimit="10" x1="-56.7" y1="186.3" x2="-60.9" y2="209.6"/>
		<path fill="#E32486" stroke="#221F1F" stroke-width="3" stroke-miterlimit="10" d="M-67.1,216.4c6.1,0,11.6,0.2,17.7-0.2
			c-1.2-4.2-4.4-8.4-9.1-8.7c-6.1-0.5-7.8,3.2-9.3,8.1C-67.8,215.6-67.7,216.4-67.1,216.4z"/>
		<path fill="#E32486" stroke="#221F1F" stroke-width="3" stroke-miterlimit="10" d="M-120.3,216.4c6.1,0,11.6,0.2,17.7-0.2
			c-1.2-4.2-4.4-8.4-9.1-8.7c-6.1-0.5-7.8,3.2-9.3,8.1C-121,215.6-120.9,216.4-120.3,216.4z"/>
		<path fill="#43AD4A" stroke="#1C1A1B" stroke-width="3" stroke-miterlimit="10" d="M-142.1,68.9c-8.8,7.8,6.4,94.6,14.6,116.3
			c9.4,25.1,72.2,9.7,78.4-0.5c7.3-12-9.2-115.8-18.4-121.3C-98,45.3-142.1,68.9-142.1,68.9z"/>
		<path fill="#FFFFFF" stroke="#1C1A1B" stroke-width="3" stroke-miterlimit="10" d="M-70.2,94.6c0.9,7.4-5.4,11-7.3,11.3
			c-1.9,0.2-8.8-0.3-9.9-9.1c-0.7-5.6,2.6-10.7,7.3-11.3C-73.5,84.7-70.9,89-70.2,94.6z"/>
		<path fill="#FFFFFF" stroke="#1C1A1B" stroke-width="3" stroke-miterlimit="10" d="M-105.7,100c0.2,1.9,1.1,8.8-5.8,9.7
			c-5.3,0.7-10-2.5-10.7-7.6c-0.5-3.3,1.3-9.1,6-9.7C-111,91.7-106.3,95.4-105.7,100z"/>
		
			<ellipse transform="matrix(-0.1241 -0.9923 0.9923 -0.1241 -186.0022 34.0074)" fill="#1C1A1B" cx="-78" cy="99.1" rx="6.3" ry="7"/>
		
			<ellipse transform="matrix(-0.1241 -0.9923 0.9923 -0.1241 -230.5132 3.5277)" fill="#1C1A1B" cx="-113.7" cy="103.5" rx="6.3" ry="7"/>
		<path fill="none" stroke="#221F1F" stroke-width="3" stroke-linecap="round" stroke-miterlimit="10" d="M-101.3,119.8
			c4.1,6.7,17.3,4,16.3-4.2"/>
		<path fill="none" stroke="#221F1F" stroke-width="2" stroke-miterlimit="10" d="M-79.4,151.9c3.6,0.2,5.5-0.4,9.2-1
			c4.5-0.8,7.6-3.1,11.7-4.5c1.1,6.1,2.8,11.8,3.6,18.1c0.2,2,1.2,5.7,0,7.6c-1.2,1.8-5.3,2.8-7.3,3.4c-2.9,0.9-6.4,0.9-9.4,0.9
			c-3.6,0-3.9-0.2-4.7-3.5c-0.9-3.6-1.5-7.4-2-11.1c-0.4-3.3-2.1-6.7-2.2-9.9H-79.4z"/>
		
			<ellipse transform="matrix(-0.1241 -0.9923 0.9923 -0.1241 -244.2398 112.2153)" fill="#FBB81E" stroke="#221F1F" stroke-width="2" stroke-miterlimit="10" cx="-72.6" cy="163.9" rx="1.9" ry="2.2"/>
		<path fill="#221F1F" d="M-124.2,62.3c0,0,0,0.5,0,1.6c0,1,0,2.5-0.1,4.4c-0.1,1.9-0.2,4.2-0.4,6.8c-0.2,2.6-0.5,5.6-0.6,8.8
			c-0.2,3.2-0.2,6.7-0.2,10.4s0.1,7.6,0.2,11.7c0.1,4,0.4,8.2,0.7,12.4c0.3,4.2,0.8,8.5,1.3,12.8c1.1,8.6,2.4,17.1,4.1,25
			c0.8,4,1.7,7.8,2.7,11.3c1,3.6,2,6.9,3,10s2,5.8,3,8.3c0.5,1.2,1,2.4,1.4,3.4c0.5,1,0.9,2,1.3,2.9c0.8,1.7,1.5,3,1.9,4
			c0.4,0.9,0.7,1.4,0.7,1.4s-0.3-0.5-0.7-1.4c-0.5-0.9-1.2-2.2-2-3.9c-0.4-0.9-0.9-1.8-1.4-2.8s-1-2.2-1.5-3.4
			c-1-2.4-2.1-5.2-3.2-8.3c-1.1-3.1-2.1-6.4-3.2-10c-1-3.6-2-7.4-2.8-11.3c-1.7-7.9-3.1-16.5-4.2-25.1c-0.5-4.3-1-8.6-1.3-12.8
			c-0.3-4.2-0.5-8.4-0.6-12.5c-0.1-4.1-0.1-8-0.1-11.7c0.1-3.7,0.1-7.2,0.4-10.5c0.2-3.2,0.6-6.2,0.8-8.8c0.3-2.6,0.5-4.9,0.6-6.8
			c0.1-1.9,0.2-3.4,0.2-4.4C-124.2,62.9-124.2,62.3-124.2,62.3z"/>
		
			<ellipse transform="matrix(-0.1241 -0.9923 0.9923 -0.1241 -221.7621 -43.5464)" fill="#221F1F" cx="-130.1" cy="76.1" rx="1.4" ry="1.6"/>
		
			<ellipse transform="matrix(-0.1241 -0.9923 0.9923 -0.1241 -298.5863 94.2422)" fill="#221F1F" cx="-107.7" cy="178.9" rx="1.4" ry="1.6"/>
		<path fill="none" stroke="#221F1F" stroke-width="3" stroke-miterlimit="10" d="M-51.6,124.1c0.3,2.6,3.2,0.7,5.2,0
			c3.6-1.4,3.2-1,5-4.7c2.1-4.3,4.3-9.8,5.6-14.3"/>
		<path fill="none" stroke="#221F1F" stroke-width="3" stroke-miterlimit="10" d="M-137.2,137.9c-5.7,1.6-10.9,2.5-14.7-2.2
			c-3.2-3.8-8.1-11.2-8.7-14.7"/>
		<path fill="#FBB81E" stroke="#221F1F" stroke-width="2" stroke-miterlimit="10" d="M-36,105.2c-5.6-2.6-4.2-6.9-3.2-10.9
			c0-0.2,0.4-0.7,0.7-0.1c1.3,4.8,8.1,6.9,12.7,5.5c0.2,0,0.8,0.1,0.5,0.8C-25.2,100.4-28.8,108.4-36,105.2z"/>
	</g>
</g>
</svg>
