<?xml version="1.0" encoding="utf-8"?>
<!-- Generator: Adobe Illustrator 19.1.0, SVG Export Plug-In . SVG Version: 6.00 Build 0)  -->
<svg version="1.1" baseProfile="tiny" id="Lager_1" xmlns="http://www.w3.org/2000/svg" xmlns:xlink="http://www.w3.org/1999/xlink"
	 x="0px" y="0px" viewBox="-195 24.4 107.8 202.6" xml:space="preserve">
<g id="Lager_1_1_">
	<g>
		<path fill="#1AABDD" stroke="#2B2523" stroke-width="2" stroke-miterlimit="10" d="M-170,151.4c4-0.4,6.6,4.2,8,8.8
			c0.1,0.2,0.1,0.9-0.5,0.5c-3.4-4-9.3-1.8-11.8,2.3c-0.1,0.1-0.6,0.4-0.8-0.5C-175,162.6-175.6,151.9-170,151.4z"/>
		<path fill="#1AABDD" stroke="#2B2523" stroke-width="2" stroke-miterlimit="10" d="M-107.4,151.6c3.9,0.8,5.1,6,5.1,10.8
			c0,0.2-0.2,0.9-0.6,0.4c-2.1-4.8-8.4-4.5-12-1.2c-0.1,0.1-0.7,0.2-0.6-0.7C-115.5,160.9-112.9,150.6-107.4,151.6z"/>
		<path fill="#FBBA00" stroke="#2B2523" stroke-width="3" stroke-miterlimit="10" d="M-174.4,34.3c-3.6,3.2-3.7,51.5,6.1,59.1
			c13.2,10.3,19.3,11.7,29.9,11.3c10.6-0.4,21.6-5.4,27.7-9.5s13.3-52.9,8.7-57.1C-111.5,29.4-168,28.6-174.4,34.3z"/>
		<path fill="#FFFFFF" stroke="#25211E" stroke-width="3" stroke-miterlimit="10" d="M-101.6,85.6c0,3.9-3.5,6.6-8.1,6.6
			c-2.2,0-5.5-2.8-5.5-6.6c0-3.9,3-7,6.8-7C-104.7,78.7-101.6,81.8-101.6,85.6z"/>
		<path fill="#FFFFFF" stroke="#25211E" stroke-width="3" stroke-miterlimit="10" d="M-165.9,90c3.1-2.3,3.3-6.7,0.6-10.4
			c-1.3-1.8-5.5-2.8-8.6-0.5c-3.1,2.3-3.9,6.6-1.7,9.6C-173.3,91.7-169,92.3-165.9,90z"/>
		<circle fill="#25211E" cx="-170.1" cy="86.1" r="5.2"/>
		<circle fill="#25211E" cx="-108.4" cy="87.1" r="5.2"/>
		<path fill="none" stroke="#2B2523" stroke-width="3" stroke-miterlimit="10" d="M-151.2,72.9c-0.4-2.2-21.2-4.5-24.6-3.4
			c-3.4,1-10.7,6-11.4,8.1c-0.7,2.1-2.4,11.8-1.2,14.4c1.2,2.6,15.2,9.7,21.2,7.3c6-2.4,14.1-9.8,14.9-12.3
			C-151.6,84.7-150.7,75.6-151.2,72.9z"/>
		<path fill="none" stroke="#2B2523" stroke-width="3" stroke-miterlimit="10" d="M-130.3,74.2c0.3-2.1,20.7-4.9,24.1-4
			c3.4,0.9,10.6,5.6,11.3,7.7c0.8,2,2.7,11.6,1.5,14.2c-1.1,2.6-14.7,9.9-20.6,7.7c-5.9-2.2-14.1-9.3-14.9-11.7
			C-129.7,85.7-130.7,76.8-130.3,74.2z"/>
		<path fill="none" stroke="#2B2523" stroke-width="3" stroke-miterlimit="10" d="M-151.5,77.5c4.2-0.3,8.2-1.2,12.4-0.5
			c2.1,0.3,7.7,0.3,8.8,1.7"/>
		<path fill="none" stroke="#2B2523" stroke-width="2" stroke-linecap="round" stroke-miterlimit="10" d="M-147.6,95.5
			c2,2.1,4.5,3.4,7.4,2.9c0.9-0.1,3.8-1.1,4.8-3.1"/>
		<path fill="none" stroke="#2B2523" stroke-width="3" stroke-miterlimit="10" d="M-139,104.4c0,3.1-1.3,9.4,0,12.7"/>
		<path fill="none" stroke="#2B2523" stroke-width="3" stroke-miterlimit="10" d="M-159.4,125.5c-4,2.7-10.6,5-11.8,10.3
			c-0.8,3.4-0.7,6.9-0.5,10.4c0.1,2.8-0.1,2,1,5.5"/>
		<path fill="none" stroke="#2B2523" stroke-width="3" stroke-miterlimit="10" d="M-122.3,125.7c0.7,1.2,2.9,1.6,4.2,1.8
			c2,0.4,3.3,1,5.1,1.7c2.1,0.8,3.2,1.3,4.5,3.3c1.8,3,1.9,6.7,1.8,10.1c-0.1,3.3-0.5,4.9-1,8.4"/>
		<path fill="#41A535" stroke="#2B2523" stroke-width="3" stroke-miterlimit="10" d="M-158.4,117.9c3-4.5,37.5-4.2,39.5-0.4
			c2,3.8-1.2,39.4-3.7,41.4c-4.7,3.7-27.6,1.5-30.8,0.7C-156.6,158.8-160.1,120.5-158.4,117.9z"/>
		<path fill="none" stroke="#2B2523" stroke-width="3" stroke-miterlimit="10" d="M-137,160.9c-0.2,0.1-0.3,3.4-0.2,4.7
			c0,2.3,0.4,4.4,0.7,6.6c0.2,1.2,0.3,3.5,0.5,4.2"/>
		<path fill="none" stroke="#2B2523" stroke-width="3" stroke-miterlimit="10" d="M-151.6,218.9c-1.1-2.3-0.8-6.3-0.7-8.9
			c0.2-4.1,0.7-8.5,1.7-12.5c0.9-3.6,2-8.1,4.2-10.9"/>
		<path fill="none" stroke="#2B2523" stroke-width="3" stroke-miterlimit="10" d="M-126.1,188.1c4.3,3.4,4.7,12.3,5.3,17.1
			c0.5,3.8,1.7,10.8,0.2,13.9"/>
		<path fill="#E5007F" stroke="#2B2523" stroke-width="3" stroke-miterlimit="10" d="M-152.5,176.4c4.3-3,27.9-4.1,30.1-3.1
			s4.5,11,1.8,13.2s-11.6,4.2-14.9,4.7s-15.1-3-17-4.7C-154.4,184.9-152.5,176.4-152.5,176.4z"/>
		<path fill="#2B2523" d="M-145.9,115.8c0,0-0.2,0.7-0.5,1.9c-0.2,0.6-0.3,1.3-0.6,2.2c-0.1,0.8-0.3,1.8-0.5,2.8s-0.3,2.2-0.4,3.4
			c-0.1,0.6-0.1,1.2-0.2,1.8c0,0.6-0.1,1.3-0.1,1.9c-0.1,1.3-0.2,2.7-0.1,4.1c0,1.4,0,2.8,0,4.2c0,2.8,0.1,5.6,0.2,8.3
			c0.1,2.6,0.1,5.1,0.2,7.2c0.1,2.1,0.2,3.9,0.4,5.1c0.1,0.6,0.2,1.1,0.3,1.4c0.1,0.3,0.3,0.4,0.3,0.4s-0.2-0.1-0.3-0.4
			c-0.2-0.3-0.3-0.8-0.5-1.4c-0.3-1.2-0.6-3-0.8-5.1c-0.2-2.1-0.3-4.6-0.5-7.2c-0.1-2.6-0.3-5.5-0.3-8.3c0-1.4,0-2.8,0-4.2
			c0-1.4,0.1-2.8,0.2-4.1c0.1-0.7,0.1-1.3,0.2-2c0.1-0.6,0.2-1.3,0.3-1.9c0.2-1.2,0.3-2.3,0.6-3.4c0.2-1,0.5-2,0.7-2.8
			c0.3-0.8,0.5-1.5,0.7-2.1C-146.2,116.5-145.9,115.8-145.9,115.8z"/>
		<path fill="#2B2523" d="M-144.7,174.4c0,0,0,0.2,0,0.6c0,0.4-0.1,1-0.1,1.7c0,0.3,0,0.7-0.1,1.1c0,0.4,0,0.8,0,1.2
			c0,0.9,0,1.8,0,2.7c0,0.5,0,0.9,0,1.4c0,0.4,0,0.9,0,1.3c0,0.9,0.1,1.7,0.1,2.3c0,0.7,0,1.3,0.1,1.7c0,0.4,0,0.6,0,0.6
			s-0.1-0.2-0.2-0.6c-0.1-0.4-0.3-0.9-0.4-1.6c-0.2-0.7-0.3-1.5-0.4-2.4c-0.1-0.4-0.1-0.9-0.1-1.3c0-0.5-0.1-0.9-0.1-1.4
			s0-0.9,0-1.4s0.1-0.9,0.1-1.3c0-0.4,0.1-0.9,0.2-1.3c0.1-0.4,0.2-0.8,0.2-1.1c0.1-0.7,0.4-1.2,0.5-1.6
			C-144.8,174.7-144.7,174.4-144.7,174.4z"/>
		<ellipse fill="#2B2523" cx="-148.9" cy="179.7" rx="1.6" ry="1.4"/>
		<ellipse fill="#2B2523" cx="-151.5" cy="121.3" rx="1.6" ry="1.4"/>
		<path fill="#FBBA00" stroke="#2B2523" stroke-width="3" stroke-miterlimit="10" d="M-158.3,223.8c4.6,0,8.7,0.2,13.3-0.2
			c-0.9-4.4-3.3-8.7-6.8-9.1c-4.6-0.5-5.9,3.4-7,8.4C-158.8,223-158.8,223.9-158.3,223.8z"/>
		<path fill="#FBBA00" stroke="#2B2523" stroke-width="3" stroke-miterlimit="10" d="M-114.6,223.8c-4.6,0-8.7,0.2-13.3-0.2
			c0.9-4.4,3.3-8.7,6.8-9.1c4.6-0.5,5.9,3.4,7,8.4C-114.1,223-114.1,223.9-114.6,223.8z"/>
	</g>
</g>
</svg>
