<?xml version="1.0" encoding="utf-8"?>
<!-- Generator: Adobe Illustrator 19.1.0, SVG Export Plug-In . SVG Version: 6.00 Build 0)  -->
<svg version="1.1" baseProfile="tiny" id="Lager_1" xmlns="http://www.w3.org/2000/svg" xmlns:xlink="http://www.w3.org/1999/xlink"
	 x="0px" y="0px" viewBox="-195 24.4 107.8 202.6" xml:space="preserve">
<g id="Lager_3">
	<g>
		<path fill="#1AABDD" stroke="#2B2523" stroke-width="2" stroke-miterlimit="10" d="M-168.8,154.3c3.9-0.8,7,3.6,8.9,8
			c0.1,0.2,0.2,0.9-0.4,0.6c-3.8-3.6-9.5-0.9-11.5,3.5c-0.1,0.1-0.6,0.4-0.8-0.5C-172.7,165.9-174.2,155.4-168.8,154.3z"/>
		<path fill="#1AABDD" stroke="#2B2523" stroke-width="2" stroke-miterlimit="10" d="M-106.5,148.4c4,0.4,5.7,5.5,6.1,10.3
			c0,0.2-0.1,0.9-0.6,0.4c-2.6-4.6-8.8-3.7-12-0.1c-0.1,0.1-0.7,0.2-0.7-0.7C-113.6,158.4-112,147.9-106.5,148.4z"/>
		<path fill="#FBBA00" stroke="#2B2523" stroke-width="3" stroke-miterlimit="10" d="M-171.5,31.6c-3.9,2.9-8.1,51,1,59.4
			c12.4,11.4,18.3,13.3,28.9,13.9c10.6,0.6,22-3.6,28.4-7.1s17.7-51.6,13.5-56.2C-108.4,32-164.6,26.4-171.5,31.6z"/>
		<path fill="#FFFFFF" stroke="#25211E" stroke-width="3" stroke-miterlimit="10" d="M-103.3,88.9c-0.3,3.8-4.1,6.3-8.6,5.9
			c-2.2-0.2-5.2-3.2-4.9-7.1c0.3-3.8,3.6-6.7,7.4-6.4C-105.7,81.7-103,85.1-103.3,88.9z"/>
		<path fill="#FFFFFF" stroke="#25211E" stroke-width="3" stroke-miterlimit="10" d="M-167.7,87.8c3.3-2,3.8-6.4,1.5-10.4
			c-1.1-1.9-5.2-3.2-8.5-1.3c-3.3,2-4.4,6.2-2.5,9.4C-175.2,88.8-171,89.8-167.7,87.8z"/>
		<circle fill="#25211E" cx="-171.6" cy="83.5" r="5.2"/>
		<circle fill="#25211E" cx="-110.2" cy="89.7" r="5.2"/>
		<path fill="none" stroke="#2B2523" stroke-width="3" stroke-miterlimit="10" d="M-151.6,72c-0.2-2.2-20.8-6.3-24.2-5.5
			c-3.5,0.7-11.1,5.1-12,7.1c-0.9,2-3.4,11.6-2.4,14.3c1,2.7,14.3,11,20.5,9.1c6.1-1.9,14.9-8.6,15.9-11
			C-153,83.7-151.3,74.7-151.6,72z"/>
		<path fill="none" stroke="#2B2523" stroke-width="3" stroke-miterlimit="10" d="M-130.9,75.1c0.5-2.1,21-3.1,24.3-1.9
			c3.3,1.2,10.1,6.5,10.7,8.6s1.7,11.7,0.3,14.2c-1.3,2.5-15.5,8.6-21.1,5.9c-5.7-2.6-13.3-10.4-13.8-12.8
			C-131.1,86.6-131.5,77.7-130.9,75.1z"/>
		<path fill="none" stroke="#2B2523" stroke-width="3" stroke-miterlimit="10" d="M-152.2,76.5c4.2,0,8.2-0.5,12.4,0.6
			c2.1,0.5,7.6,0.9,8.6,2.4"/>
		<path fill="none" stroke="#2B2523" stroke-width="2" stroke-linecap="round" stroke-miterlimit="10" d="M-149.9,94.8
			c1.8,2.3,4.2,3.8,7.1,3.6c0.9-0.1,3.9-0.8,5-2.7"/>
		<path fill="none" stroke="#2B2523" stroke-width="3" stroke-miterlimit="10" d="M-142.1,104.4c-0.3,3.1-0.7,9.5,0.9,12.7"/>
		<path fill="none" stroke="#2B2523" stroke-width="3" stroke-miterlimit="10" d="M-160.7,127.4c-3.7,3.1-10,6-10.8,11.4
			c-0.5,3.5,0,6.9,0.5,10.4c0.4,2.8,0.1,2,1.5,5.3"/>
		<path fill="none" stroke="#2B2523" stroke-width="3" stroke-miterlimit="10" d="M-123.8,124.1c0.9,1.1,3.1,1.3,4.4,1.4
			c2,0.2,3.4,0.7,5.3,1.2c2.2,0.6,3.4,1,4.8,2.9c2.1,2.8,2.5,6.5,2.7,9.9c0.2,3.3,0,4.9-0.1,8.5"/>
		<path fill="#41A535" stroke="#2B2523" stroke-width="3" stroke-miterlimit="10" d="M-160.4,119.8c2.6-4.7,36.9-7.8,39.3-4.2
			c2.3,3.6,2.6,39.3,0.3,41.5c-4.3,4.1-27.3,4.2-30.6,3.7C-154.7,160.3-161.9,122.5-160.4,119.8z"/>
		<path fill="none" stroke="#2B2523" stroke-width="3" stroke-miterlimit="10" d="M-135,160.6c-0.2,0.1,0.1,3.4,0.2,4.7
			c0.3,2.3-2.1,4.7-1.8,6.9c0.2,1.2,0.3,3.5,0.5,4.2"/>
		<path fill="none" stroke="#2B2523" stroke-width="3" stroke-miterlimit="10" d="M-154.6,215.9c-1.1-2.3-0.8-6.3-0.7-8.9
			c0.2-4.1,0.7-8.5,1.7-12.5c0.9-3.6,5-5.1,7.2-7.9"/>
		<path fill="none" stroke="#2B2523" stroke-width="3" stroke-miterlimit="10" d="M-126.1,188.1c4.3,3.4,7.4,12.3,8,17.1
			c0.5,3.8,1.7,10.8,0.2,13.9"/>
		<path fill="#E5007F" stroke="#2B2523" stroke-width="3" stroke-miterlimit="10" d="M-152.5,176.4c4.3-3,27.9-4.1,30.1-3.1
			s4.5,11,1.8,13.2s-11.6,4.2-14.9,4.7s-15.1-3-17-4.7C-154.4,184.9-152.5,176.4-152.5,176.4z"/>
		<path fill="#2B2523" d="M-148.3,116.5c0,0-0.1,0.7-0.3,1.9c-0.1,0.6-0.2,1.3-0.3,2.2c-0.1,0.9-0.2,1.8-0.2,2.9
			c-0.1,1-0.1,2.2-0.1,3.4c0,1.2,0,2.5,0.1,3.8c0.1,2.6,0.4,5.4,0.7,8.2c0.3,2.8,0.7,5.6,1,8.2c0.4,2.6,0.6,5.1,0.9,7.2
			s0.6,3.8,0.9,5c0.2,0.6,0.3,1,0.5,1.3s0.3,0.4,0.3,0.4s-0.2-0.1-0.4-0.3c-0.2-0.3-0.4-0.7-0.6-1.3c-0.4-1.2-0.9-2.9-1.2-5
			c-0.4-2.1-0.8-4.5-1.2-7.1c-0.4-2.6-0.8-5.4-1.1-8.2c-0.3-2.8-0.5-5.6-0.6-8.3c0-1.3,0-2.6,0-3.8c0.1-1.2,0.1-2.4,0.3-3.4
			c0.1-1.1,0.3-2,0.4-2.9c0.2-0.8,0.3-1.6,0.5-2.2C-148.5,117.2-148.3,116.5-148.3,116.5z"/>
		<path fill="#2B2523" d="M-144.7,174.4c0,0,0,0.2,0,0.6c0,0.4-0.1,1-0.1,1.7s-0.1,1.5-0.1,2.3c0,0.9,0,1.8,0,2.7
			c0,1.8,0.1,3.6,0.2,5c0.1,1.4,0.1,2.3,0.1,2.3s-0.3-0.9-0.6-2.2c-0.3-1.4-0.6-3.2-0.6-5.1c0-1.9,0.2-3.7,0.5-5.1
			c0.2-0.7,0.3-1.2,0.5-1.6C-144.8,174.7-144.7,174.4-144.7,174.4z"/>
		<ellipse fill="#2B2523" cx="-148.9" cy="179.7" rx="1.6" ry="1.4"/>
		
			<ellipse transform="matrix(-9.760211e-002 -0.9952 0.9952 -9.760211e-002 -290.0616 -18.0207)" fill="#2B2523" cx="-153.2" cy="122.5" rx="1.4" ry="1.6"/>
		<path fill="#FBBA00" stroke="#2B2523" stroke-width="3" stroke-miterlimit="10" d="M-161.3,220.8c4.6,0,8.7,0.2,13.3-0.2
			c-0.9-4.4-3.3-8.7-6.8-9.1c-4.6-0.5-5.9,3.4-7,8.4C-161.8,220-161.7,220.9-161.3,220.8z"/>
		<path fill="#FBBA00" stroke="#2B2523" stroke-width="3" stroke-miterlimit="10" d="M-111.8,223.7c-4.6,0-8.7,0.2-13.3-0.2
			c0.9-4.4,3.3-8.7,6.8-9.1c4.6-0.5,5.9,3.4,7,8.4C-111.3,222.9-111.4,223.8-111.8,223.7z"/>
	</g>
</g>
</svg>
