<?xml version="1.0" encoding="utf-8"?>
<!-- Generator: Adobe Illustrator 19.1.0, SVG Export Plug-In . SVG Version: 6.00 Build 0)  -->
<svg version="1.1" baseProfile="tiny" id="Lager_1" xmlns="http://www.w3.org/2000/svg" xmlns:xlink="http://www.w3.org/1999/xlink"
	 x="0px" y="0px" viewBox="-195 24.4 107.8 202.6" xml:space="preserve">
<g id="Lager_4">
	<g>
		<path fill="#1AABDD" stroke="#2B2523" stroke-width="2" stroke-miterlimit="10" d="M-170.3,149.9c4-0.3,6.5,4.4,7.7,9.1
			c0.1,0.2,0.1,0.9-0.5,0.5c-3.3-4.1-9.3-2.2-11.9,1.9c-0.1,0.1-0.6,0.4-0.8-0.6C-175.7,160.9-175.9,150.3-170.3,149.9z"/>
		<path fill="#1AABDD" stroke="#2B2523" stroke-width="2" stroke-miterlimit="10" d="M-107.8,152.3c3.9,0.9,4.9,6.2,4.7,11
			c0,0.2-0.2,0.9-0.6,0.4c-2-4.9-8.2-4.8-11.9-1.6c-0.1,0.1-0.7,0.1-0.6-0.8C-116.2,161.2-113.2,151-107.8,152.3z"/>
		<path fill="#FBBA00" stroke="#2B2523" stroke-width="3" stroke-miterlimit="10" d="M-174.6,34.4c-3.6,3.2-3.3,51.5,6.5,59
			c13.4,10.2,19.4,11.6,30,11.1c10.6-0.5,21.5-5.6,27.6-9.7c6-4.1,12.9-53,8.3-57.2C-111.8,29-168.3,28.6-174.6,34.4z"/>
		<path fill="#FFFFFF" stroke="#25211E" stroke-width="3" stroke-miterlimit="10" d="M-101.5,85.2c0,3.9-3.5,6.7-8,6.7
			c-2.2,0-5.5-2.7-5.5-6.6s3-7,6.7-7C-104.5,78.2-101.5,81.3-101.5,85.2z"/>
		<path fill="#FFFFFF" stroke="#25211E" stroke-width="3" stroke-miterlimit="10" d="M-165.7,90c3.1-2.3,3.2-6.8,0.5-10.4
			c-1.3-1.7-5.5-2.8-8.6-0.5c-3.1,2.3-3.8,6.6-1.6,9.6C-173.1,91.8-168.8,92.3-165.7,90z"/>
		<circle fill="#25211E" cx="-169.9" cy="86.1" r="5.2"/>
		<circle fill="#25211E" cx="-108.2" cy="86.6" r="5.2"/>
		<path fill="none" stroke="#2B2523" stroke-width="3" stroke-miterlimit="10" d="M-151.1,72.8c-0.4-2.2-21.3-4.3-24.7-3.3
			c-3.4,1-10.6,6.1-11.3,8.3c-0.7,2.2-2.3,11.8-1.1,14.4s15.3,9.6,21.2,7.2s14.1-9.9,14.8-12.4C-151.4,84.6-150.6,75.5-151.1,72.8z"
			/>
		<path fill="none" stroke="#2B2523" stroke-width="3" stroke-miterlimit="10" d="M-130.2,74c0.3-2.1,20.7-5.1,24-4.2
			c3.4,0.9,10.6,5.5,11.4,7.6c0.8,2,2.8,11.5,1.6,14.1c-1.1,2.6-14.6,10-20.5,7.9s-14.2-9.2-15-11.5
			C-129.4,85.5-130.6,76.6-130.2,74z"/>
		<path fill="none" stroke="#2B2523" stroke-width="3" stroke-miterlimit="10" d="M-151.3,77.4c4.2-0.4,8.1-1.2,12.4-0.6
			c2.1,0.3,7.7,0.2,8.8,1.6"/>
		<path fill="none" stroke="#2B2523" stroke-width="2" stroke-linecap="round" stroke-miterlimit="10" d="M-147.3,95.4
			c2,2.1,4.6,3.4,7.4,2.9c0.9-0.2,3.8-1.1,4.7-3.1"/>
		<path fill="none" stroke="#2B2523" stroke-width="3" stroke-miterlimit="10" d="M-138.7,104.2c0,3.1-0.6,9.2,0.5,12.5"/>
		<path fill="none" stroke="#2B2523" stroke-width="3" stroke-miterlimit="10" d="M-158.8,124.4c-4.1,2.6-10.7,4.7-12.2,9.9
			c-1,3.4-0.9,6.9-0.8,10.4c0,2.8-0.2,2,0.8,5.5"/>
		<path fill="none" stroke="#2B2523" stroke-width="3" stroke-miterlimit="10" d="M-121.8,125.9c0.7,1.2,2.9,1.7,4.2,2
			c1.9,0.4,3.2,1.1,5.1,1.9c2.1,0.9,3.2,1.4,4.4,3.5c1.7,3.1,1.7,6.8,1.4,10.2c-0.2,3.3-0.7,4.9-1.3,8.4"/>
		<path fill="#41A535" stroke="#2B2523" stroke-width="3" stroke-miterlimit="10" d="M-157.5,116.9c3.2-4.4,37.6-2.9,39.5,1
			c1.9,3.8-2.5,39.3-5.1,41.2c-4.8,3.5-27.6,0.6-30.8-0.3C-157.1,157.9-159.4,119.4-157.5,116.9z"/>
		<path fill="none" stroke="#2B2523" stroke-width="3" stroke-miterlimit="10" d="M-137.7,160.6c-0.2,0.1-0.4,3.4-0.4,4.7
			c0,2.3-1.2,5.4-0.8,7.6c0.2,1.2,0.3,3.5,0.5,4.2"/>
		<path fill="none" stroke="#2B2523" stroke-width="3" stroke-miterlimit="10" d="M-154.6,215.9c-1.1-2.3-0.8-6.3-0.7-8.9
			c0.2-4.1-1.7-7.7-0.7-11.8c0.9-3.6,5-5.1,7.2-7.9"/>
		<path fill="none" stroke="#2B2523" stroke-width="3" stroke-miterlimit="10" d="M-128.4,188.8c4.3,3.4,9.8,11.5,10.4,16.4
			c0.5,3.8,1.7,10.8,0.2,13.9"/>
		<path fill="#E5007F" stroke="#2B2523" stroke-width="3" stroke-miterlimit="10" d="M-154.8,177.2c4.3-3,27.9-4.1,30.1-3.1
			s4.5,11,1.8,13.2s-11.6,4.2-14.9,4.7c-3.3,0.5-15.1-3-17-4.7C-156.7,185.6-154.8,177.2-154.8,177.2z"/>
		<path fill="#2B2523" d="M-145.1,115.2c0,0-0.2,0.7-0.6,1.8c-0.2,0.6-0.4,1.3-0.6,2.1c-0.2,0.8-0.4,1.8-0.6,2.8s-0.4,2.2-0.6,3.3
			c-0.2,1.2-0.3,2.5-0.4,3.8c-0.2,2.6-0.3,5.4-0.4,8.2c-0.1,2.8-0.1,5.6-0.1,8.3c0,2.6-0.1,5.1-0.1,7.2s0,3.9,0.2,5.1
			c0.1,0.6,0.2,1.1,0.3,1.4c0.1,0.3,0.3,0.4,0.3,0.4s-0.2-0.1-0.3-0.4c-0.2-0.3-0.3-0.8-0.4-1.4c-0.2-1.2-0.5-3-0.6-5.1
			c-0.1-2.1-0.2-4.6-0.2-7.2s-0.1-5.5-0.1-8.3c0.1-2.8,0.2-5.7,0.5-8.3c0.1-1.3,0.3-2.6,0.5-3.8c0.2-1.2,0.5-2.3,0.7-3.4
			c0.2-1,0.6-2,0.8-2.8c0.3-0.8,0.6-1.5,0.8-2.1C-145.3,115.8-145.1,115.2-145.1,115.2z"/>
		<path fill="#2B2523" d="M-147,175.2c0,0,0,0.2,0,0.6c0,0.4-0.1,1-0.1,1.7s-0.1,1.5-0.1,2.3c0,0.9,0,1.8,0,2.7c0,1.8,0.1,3.6,0.2,5
			s0.1,2.3,0.1,2.3s-0.3-0.9-0.6-2.2c-0.3-1.4-0.6-3.2-0.6-5.1c0-1.9,0.2-3.7,0.5-5.1c0.2-0.7,0.3-1.2,0.5-1.6
			C-147.1,175.4-147,175.2-147,175.2z"/>
		<ellipse fill="#2B2523" cx="-151.2" cy="180.4" rx="1.6" ry="1.4"/>
		
			<ellipse transform="matrix(3.412097e-002 -0.9994 0.9994 3.412097e-002 -266.0835 -34.3287)" fill="#2B2523" cx="-150.8" cy="120.5" rx="1.4" ry="1.6"/>
		<path fill="#FBBA00" stroke="#2B2523" stroke-width="3" stroke-miterlimit="10" d="M-161.3,220.8c4.6,0,8.7,0.2,13.3-0.2
			c-0.9-4.4-3.3-8.7-6.8-9.1c-4.6-0.5-5.9,3.4-7,8.4C-161.8,220-161.7,220.9-161.3,220.8z"/>
		<path fill="#FBBA00" stroke="#2B2523" stroke-width="3" stroke-miterlimit="10" d="M-111.8,223.7c-4.6,0-8.7,0.2-13.3-0.2
			c0.9-4.4,3.3-8.7,6.8-9.1c4.6-0.5,5.9,3.4,7,8.4C-111.3,222.9-111.4,223.8-111.8,223.7z"/>
	</g>
</g>
</svg>
